<svg width="254" height="138" viewBox="0 0 254 138" fill="none" xmlns="http://www.w3.org/2000/svg">
<g filter="url(#filter0_d_11_114)">
<path d="M55.8446 24.9702L55.8446 74.4998L11.4609 74.4998L24.4866 49.735L1.66866 24.9702L55.8446 24.9702Z" fill="#81599C"/>
<path d="M187.353 24.9702L187.353 74.4998L231.737 74.4998L218.711 49.735L241.529 24.9702L187.353 24.9702Z" fill="#81599C"/>
<path d="M42.9799 34.2917L55.8447 24.9702V86.0781H42.9799V34.2917Z" fill="#493A52"/>
<path d="M200.218 34.2917L187.353 24.9702V86.0781H200.218V34.2917Z" fill="#493A52"/>
<path d="M80.4012 34.2499L80.4012 90.8821L40.4705 90.8821C40.4705 90.8821 36.838 90.8821 36.838 62.566C36.838 34.2499 40.4705 34.2499 40.4705 34.2499L80.4012 34.2499Z" fill="#AA75CB"/>
<path d="M163.171 34.2499L163.171 90.8821L202.134 90.8821C202.134 90.8821 205.645 90.8821 205.645 62.566C205.645 34.2499 202.134 34.2499 202.134 34.2499L163.171 34.2499Z" fill="#AA75CB"/>
<path d="M123.77 3.46161C125.761 1.75159 128.702 1.75159 130.693 3.46161L138.265 9.96448C139.546 11.0646 141.274 11.4904 142.919 11.1116L152.646 8.87237C155.203 8.28355 157.808 9.65049 158.776 12.09L162.459 21.3668C163.082 22.9361 164.414 24.116 166.047 24.5452L175.7 27.0827C178.238 27.75 179.909 30.1707 179.633 32.7808L178.582 42.7064C178.405 44.3855 179.036 46.0491 180.282 47.188L187.65 53.9209C189.588 55.6914 189.942 58.6113 188.485 60.794L182.942 69.0946C182.004 70.4987 181.79 72.265 182.364 73.8528L185.759 83.2385C186.652 85.7067 185.609 88.4569 183.304 89.7123L174.539 94.4861C173.056 95.2937 172.045 96.758 171.816 98.4308L170.461 108.319C170.104 110.92 167.903 112.87 165.278 112.911L155.298 113.064C153.61 113.09 152.035 113.917 151.054 115.292L145.259 123.418C143.735 125.555 140.879 126.258 138.536 125.075L129.628 120.573C128.121 119.811 126.342 119.811 124.835 120.573L115.927 125.075C113.584 126.258 110.728 125.555 109.204 123.418L103.409 115.292C102.428 113.917 100.853 113.09 99.1647 113.064L89.1849 112.911C86.5605 112.87 84.3589 110.92 84.0024 108.319L82.647 98.4308C82.4177 96.758 81.407 95.2937 79.9242 94.4861L71.1589 89.7123C68.8539 88.4569 67.8109 85.7067 68.7037 83.2385L72.099 73.8528C72.6733 72.265 72.4589 70.4987 71.5212 69.0946L65.9785 60.794C64.5209 58.6113 64.8755 55.6914 66.813 53.9209L74.1812 47.188C75.4276 46.0491 76.0585 44.3855 75.8808 42.7064L74.8304 32.7808C74.5542 30.1707 76.2251 27.75 78.7635 27.0827L88.4166 24.5452C90.0495 24.116 91.3813 22.9361 92.0043 21.3668L95.6868 12.09C96.6552 9.65049 99.2597 8.28355 101.817 8.87237L111.544 11.1116C113.189 11.4903 114.917 11.0646 116.198 9.96448L123.77 3.46161Z" fill="url(#paint0_linear_11_114)"/>
<circle cx="126.687" cy="64.1997" r="45.1968" fill="#705100"/>
<mask id="mask0_11_114" style="mask-type:alpha" maskUnits="userSpaceOnUse" x="84" y="23" width="91" height="92">
<circle cx="129.522" cy="69.1814" r="45.3963" fill="#C28B37"/>
</mask>
<g mask="url(#mask0_11_114)">
<circle cx="127.104" cy="64.3463" r="45.3963" fill="url(#paint1_linear_11_114)"/>
</g>
<ellipse cx="127.776" cy="64.7443" rx="35.3951" ry="35.9397" fill="#A36D1D"/>
<ellipse opacity="0.8" cx="127.776" cy="64.7442" rx="33.217" ry="32.6724" fill="url(#paint2_linear_11_114)"/>
<path d="M128.661 41.4083L127.776 39.7243L126.891 41.4083L119.694 55.1007L105.332 56.8084L103.364 57.0423L104.721 58.4862L114.622 69.0216L111.908 84.1714L111.565 86.0864L113.322 85.2508L127.776 78.3761L142.231 85.2508L143.984 86.0849L143.645 84.1729L140.954 69.0215L150.832 58.4853L152.185 57.042L150.22 56.8084L135.859 55.1007L128.661 41.4083Z" fill="url(#paint3_linear_11_114)" stroke="#C18832" stroke-width="2"/>
</g>
<defs>
<filter id="filter0_d_11_114" x="0.885203" y="1.39558" width="252.396" height="136.003" filterUnits="userSpaceOnUse" color-interpolation-filters="sRGB">
<feFlood flood-opacity="0" result="BackgroundImageFix"/>
<feColorMatrix in="SourceAlpha" type="matrix" values="0 0 0 0 0 0 0 0 0 0 0 0 0 0 0 0 0 0 127 0" result="hardAlpha"/>
<feOffset dx="5.48449" dy="5.48449"/>
<feGaussianBlur stdDeviation="3.13399"/>
<feComposite in2="hardAlpha" operator="out"/>
<feColorMatrix type="matrix" values="0 0 0 0 0 0 0 0 0 0 0 0 0 0 0 0 0 0 0.3 0"/>
<feBlend mode="normal" in2="BackgroundImageFix" result="effect1_dropShadow_11_114"/>
<feBlend mode="normal" in="SourceGraphic" in2="effect1_dropShadow_11_114" result="shape"/>
</filter>
<linearGradient id="paint0_linear_11_114" x1="127.232" y1="0.488525" x2="127.232" y2="129" gradientUnits="userSpaceOnUse">
<stop stop-color="#FFE178"/>
<stop offset="1" stop-color="#DD9F00"/>
</linearGradient>
<linearGradient id="paint1_linear_11_114" x1="113.618" y1="19.0028" x2="146.291" y2="105.585" gradientUnits="userSpaceOnUse">
<stop stop-color="#E4A400"/>
<stop offset="1" stop-color="#966301"/>
</linearGradient>
<linearGradient id="paint2_linear_11_114" x1="127.776" y1="32.0718" x2="127.776" y2="97.4167" gradientUnits="userSpaceOnUse">
<stop stop-color="#FFEC86"/>
<stop offset="1" stop-color="#FFB802"/>
</linearGradient>
<linearGradient id="paint3_linear_11_114" x1="127.776" y1="55.5218" x2="127.776" y2="82.5401" gradientUnits="userSpaceOnUse">
<stop stop-color="#FEFFC5"/>
<stop offset="0.161458" stop-color="#FFFAC5"/>
<stop offset="1" stop-color="#FFD585"/>
</linearGradient>
</defs>
</svg>
