<svg width="81" height="81" viewBox="0 0 81 81" fill="none" xmlns="http://www.w3.org/2000/svg">
<path d="M75.9084 64.2356C51.4052 64.3607 25.8805 64.5054 2.24794 64.4769C1.95879 64.4769 1.91818 64.9305 2.21376 64.9321C26.6957 65.0721 51.371 64.8517 75.8605 64.731C76.1883 64.7302 76.2269 64.234 75.9084 64.2356Z" fill="#191919"/>
<path d="M62.4544 43.246C62.441 43.5405 62.3542 43.827 62.2018 44.0793C62.041 44.3065 62.2473 44.5217 62.4729 44.325C62.6082 44.1793 62.7035 44.0011 62.7497 43.8077C62.796 43.6143 62.7915 43.4123 62.7367 43.2211C62.7229 43.194 62.7012 43.1716 62.6746 43.1569C62.6479 43.1421 62.6175 43.1357 62.5871 43.1383C62.5568 43.141 62.5279 43.1527 62.5043 43.1719C62.4806 43.1911 62.4633 43.2169 62.4544 43.246Z" fill="#191919"/>
<path d="M62.5176 41.9305C62.8864 41.6456 63.1486 41.2449 63.262 40.7928C63.3529 40.4353 63.1345 40.2013 62.9274 40.6493C62.7907 41.0181 62.5878 41.3588 62.3286 41.6546C62.1259 41.8823 62.2397 42.0693 62.5176 41.9305Z" fill="#191919"/>
<path d="M58.9557 38.4668C59.0301 39.8148 58.644 41.3177 59.0284 42.4791C59.0835 42.6452 59.363 42.6158 59.3425 42.4292C59.2331 41.5092 59.2331 40.5796 59.3425 39.6596C59.546 36.5401 58.6589 36.8988 58.712 37.1698C58.8488 37.5898 58.9307 38.0258 58.9557 38.4668Z" fill="#191919"/>
<path d="M62.0397 41.3004C62.3875 40.8098 62.585 40.2287 62.6083 39.6278C62.5778 39.1726 62.2367 39.1384 62.217 39.557C62.1652 40.0951 61.995 40.615 61.7188 41.0796C61.5796 41.3889 61.7666 41.6643 62.0397 41.3004Z" fill="#191919"/>
<path d="M62.6268 42.5177C62.4744 42.7115 62.6152 42.8659 62.8359 42.7658C63.1557 42.5527 63.4089 42.2539 63.5667 41.9036C63.7275 41.4005 63.3177 41.3406 63.257 41.6759C63.2035 41.9719 62.7591 42.3496 62.6268 42.5177Z" fill="#191919"/>
<path d="M60.59 39.9805C60.7078 39.73 61.4398 38.774 61.4683 38.8995C61.4285 39.6163 61.174 40.3046 60.738 40.8749C60.6334 41.0116 60.7855 41.2682 61.0565 41.0478C61.4932 40.6923 61.8894 39.4119 61.8415 38.8537C61.8379 38.8042 61.8238 38.756 61.8003 38.7123C61.7769 38.6686 61.7444 38.6303 61.7052 38.6C61.6659 38.5696 61.6207 38.5479 61.5725 38.5362C61.5242 38.5244 61.4741 38.523 61.4253 38.5319C61.0074 38.6023 60.4814 39.3954 60.3306 39.859C60.2828 40.0103 60.5192 40.1305 60.59 39.9805Z" fill="#191919"/>
<path d="M49.6227 38.4668C49.5836 38.4361 49.5386 38.4138 49.4906 38.401C49.4425 38.3883 49.3924 38.3855 49.3432 38.3927C49.2941 38.4 49.2469 38.4172 49.2046 38.4433C49.1623 38.4693 49.1257 38.5037 49.0971 38.5444C48.9877 38.7197 49.0641 38.8307 49.227 38.7491C49.3386 38.6925 49.4651 38.6719 49.5889 38.69C49.714 38.6944 49.7228 38.5283 49.6227 38.4668Z" fill="#191919"/>
<path d="M47.0423 40.6746C46.974 40.5198 46.7009 40.6344 46.7282 40.8066C46.8449 41.5369 47.8225 41.8723 48.2327 41.783C48.371 41.7528 48.4708 41.6559 48.3666 41.5369C48.2041 41.3515 47.4541 41.6101 47.0423 40.6746Z" fill="#191919"/>
<path d="M47.2015 37.6408C47.052 37.672 46.9144 37.7447 46.8045 37.8507C46.6946 37.9566 46.6168 38.0914 46.5801 38.2396C46.5439 38.4668 46.7145 38.6015 46.9079 38.3055C46.9494 38.2336 47.0047 38.1706 47.0707 38.1202C47.1367 38.0698 47.212 38.033 47.2924 38.012C47.6084 37.9299 47.5043 37.6066 47.2015 37.6408Z" fill="#191919"/>
<path d="M47.8819 38.8311C47.7803 38.7905 47.6671 38.7895 47.5648 38.8282C47.4624 38.8669 47.3783 38.9426 47.329 39.0403C47.2485 39.1975 47.3177 39.3274 47.4995 39.2204C47.6111 39.1473 47.7417 39.1084 47.8751 39.1086C48.017 39.1074 48.0343 38.9084 47.8819 38.8311Z" fill="#191919"/>
<path d="M49.7616 37.379C49.6558 37.2864 49.5273 37.2239 49.3892 37.198C49.2511 37.172 49.1086 37.1836 48.9766 37.2314C48.7626 37.3223 48.7992 37.5704 49.057 37.5704C49.2422 37.5428 49.4314 37.5616 49.6075 37.6251C49.8138 37.7015 49.8754 37.4815 49.7616 37.379Z" fill="#191919"/>
<path d="M48.4593 40.1277C48.2582 40.3075 48.5184 40.453 48.9551 40.2483C49.0347 40.2247 49.1039 40.1746 49.151 40.1063C49.1982 40.0379 49.2206 39.9555 49.2145 39.8727C49.1341 39.5462 48.9936 39.2375 48.8003 38.9623C48.6395 38.7986 48.559 39.0149 48.6298 39.1899C48.7255 39.4277 48.8016 39.6729 48.8574 39.923C48.8671 39.9463 48.508 40.0835 48.4593 40.1277Z" fill="#191919"/>
<path d="M24.4573 24.6733C24.3535 26.1613 24.6652 30.1929 23.2468 31.5803C22.0685 32.7325 20.0388 31.7307 19.216 30.6111C19.0495 30.3839 18.8593 30.6654 19.0226 30.8886C20.0002 32.2214 22.2133 33.1849 23.5585 31.8671C24.9037 30.5492 24.7295 26.6648 24.7577 24.7325C24.7601 24.5688 24.4705 24.4839 24.4573 24.6733Z" fill="#191919"/>
<path d="M17.1361 28.0229C17.3347 28.3839 17.6345 28.679 17.9987 28.8718C17.8728 29.9808 17.8347 31.098 17.8849 32.2129C17.9082 32.7932 18.2621 32.7759 18.2468 32.2129C18.2119 31.1127 18.2552 30.0114 18.3763 28.9173C18.4568 28.2095 18.2368 28.8292 17.5616 27.85C17.0331 27.0835 17.3203 26.2578 17.7892 26.2011C18.3582 26.134 18.6703 26.8595 18.9273 26.5494C19.41 25.8273 19.7212 25.0045 19.8374 24.1437C21.2188 24.4654 26.047 25.0546 26.3281 22.3742C26.6691 19.1204 20.6521 19.0585 18.8613 21.323C17.9098 20.2147 15.7117 21.43 17.3866 25.8746C16.7629 26.2534 16.6455 27.2785 17.1361 28.0229Z" fill="#191919"/>
<path d="M24.1636 25.536C23.9648 25.3559 23.7079 25.2532 23.4398 25.2468C23.1643 25.2653 23.0935 25.5794 23.4213 25.649C23.6025 25.6549 23.7782 25.7134 23.9268 25.8175C24.1817 26.0435 24.3965 25.7451 24.1636 25.536Z" fill="#191919"/>
<path d="M22.239 28.6563C21.9298 28.6357 21.7384 28.9836 22.3006 29.0226C22.6601 29.0476 22.8443 28.9494 22.9332 28.7813C23.0671 28.5284 23.0196 27.5306 22.9332 27.0879C22.9332 27.0489 22.9177 27.0116 22.8902 26.9841C22.8626 26.9565 22.8253 26.9411 22.7864 26.9411C22.7474 26.9411 22.7101 26.9565 22.6826 26.9841C22.6551 27.0116 22.6396 27.0489 22.6396 27.0879C22.6774 28.4101 22.8234 28.6949 22.239 28.6563Z" fill="#191919"/>
<path d="M20.5724 28.9748C20.4542 30.1696 21.98 30.6747 22.4135 30.2741C22.4336 30.2506 22.4472 30.2223 22.4529 30.1919C22.4587 30.1615 22.4564 30.1301 22.4463 30.1009C22.4361 30.0717 22.4185 30.0456 22.3952 30.0253C22.3719 30.0049 22.3437 29.991 22.3134 29.985C22.153 30.0264 21.9857 30.0331 21.8226 30.0044C21.6596 29.9758 21.5045 29.9126 21.3679 29.819C21.2313 29.7254 21.1163 29.6036 21.0307 29.4619C20.9451 29.3202 20.8909 29.1618 20.8716 28.9973C20.8718 28.9593 20.8575 28.9226 20.8317 28.8947C20.8059 28.8667 20.7704 28.8496 20.7325 28.8467C20.6946 28.8439 20.657 28.8555 20.6273 28.8793C20.5976 28.903 20.578 28.9372 20.5724 28.9748Z" fill="#191919"/>
<path d="M23.6766 27.5592C23.9907 27.5351 23.9658 26.8791 23.6766 26.8968C23.4607 26.9101 23.3694 27.5829 23.6766 27.5592Z" fill="#191919"/>
<path d="M21.5035 26.8607C21.2111 26.9149 21.2759 27.5069 21.5035 27.4953C21.7311 27.4836 21.7967 26.806 21.5035 26.8607Z" fill="#191919"/>
<path d="M21.7012 25.3835C21.5211 25.1825 20.7646 25.3224 20.6556 25.8203C20.6283 25.9457 20.767 26.1959 21.0059 25.8955C21.2448 25.5951 21.5255 25.7475 21.6204 25.7157C21.6524 25.7045 21.6812 25.6854 21.704 25.6602C21.7268 25.635 21.7429 25.6046 21.7509 25.5716C21.759 25.5386 21.7586 25.5041 21.7499 25.4712C21.7413 25.4384 21.7245 25.4083 21.7012 25.3835Z" fill="#191919"/>
<path d="M18.7088 42.4473C18.8043 40.2566 19.0703 38.0767 19.5043 35.9272C19.5598 35.6518 19.2107 35.5745 19.1536 35.8468C18.8617 37.2423 18.1752 41.0583 18.398 42.4465C18.4041 42.4833 18.423 42.5167 18.4514 42.5408C18.4798 42.5649 18.5158 42.5782 18.5531 42.5783C18.5903 42.5784 18.6264 42.5653 18.6549 42.5413C18.6834 42.5173 18.7025 42.4841 18.7088 42.4473Z" fill="#191919"/>
<path d="M31.4805 58.2938C31.5971 57.9258 31.6691 52.6564 31.5826 52.0443C31.5725 52.01 31.5515 51.9798 31.5228 51.9584C31.4941 51.937 31.4592 51.9254 31.4234 51.9254C31.3876 51.9254 31.3527 51.937 31.324 51.9584C31.2953 51.9798 31.2743 52.01 31.2641 52.0443C31.1572 52.6222 31.2617 55.3737 31.0936 58.2938C31.082 58.4941 31.417 58.4933 31.4805 58.2938Z" fill="#191919"/>
<path d="M11.9337 52.1943C11.91 53.3606 12.5912 57.6572 12.8438 59.2151C12.9178 59.6708 12.9033 59.7379 13.3561 59.8706C18.3139 61.3288 25.5048 60.4087 30.8341 59.9434C30.864 59.9404 30.893 59.9315 30.9194 59.9173C30.9458 59.9031 30.9692 59.8838 30.9882 59.8606C31.0072 59.8373 31.0214 59.8106 31.0301 59.7818C31.0387 59.7531 31.0416 59.7229 31.0386 59.6931C31.0356 59.6632 31.0267 59.6342 31.0125 59.6078C30.9983 59.5813 30.979 59.558 30.9558 59.539C30.9326 59.52 30.9058 59.5058 30.8771 59.4971C30.8483 59.4885 30.8181 59.4856 30.7883 59.4886C25.1887 59.9796 18.7973 60.8036 13.3425 59.4544C13.0099 57.2828 12.5502 54.9664 12.2659 52.1718C12.2615 51.9808 11.9377 51.994 11.9337 52.1943Z" fill="#191919"/>
<path d="M12.3276 42.6271C11.9725 43.0031 11.5663 44.5667 11.5036 45.028C11.5016 45.0649 11.513 45.1013 11.5356 45.1306C11.5583 45.1598 11.5908 45.1798 11.6271 45.187C11.6634 45.1942 11.7011 45.1881 11.7332 45.1697C11.7653 45.1513 11.7898 45.122 11.802 45.0871C12.1704 43.5488 12.5568 43.1189 12.5846 42.757C12.5942 42.6315 12.4225 42.5266 12.3276 42.6271Z" fill="#191919"/>
<path d="M35.4743 52.0829C35.7454 52.0656 35.7615 51.7371 35.4743 51.7166C33.2723 51.5669 31.0845 51.2527 28.9293 50.7767C28.5838 49.031 28.507 47.2428 28.7017 45.4739C28.7362 45.1989 28.3904 45.2101 28.3558 45.4739C28.1314 47.1859 28.0691 49.029 28.5834 50.6878C27.9142 50.5012 25.932 50.0042 25.3972 49.5775C25.1565 47.9134 25.0757 46.2301 25.1559 44.5506C28.2085 44.4931 31.2504 44.9289 34.1641 45.8411C34.3282 45.8926 34.3415 45.6613 34.1959 45.5725C33.1905 44.9588 31.1512 44.5892 29.9564 44.4344C29.8836 43.9474 29.5192 42.4409 29.2872 42.1907C29.2711 42.1764 29.2524 42.1655 29.2321 42.1584C29.2117 42.1513 29.1902 42.1484 29.1687 42.1496C29.1473 42.1509 29.1262 42.1564 29.1069 42.1658C29.0875 42.1752 29.0702 42.1883 29.056 42.2044C28.8951 42.3838 29.2808 42.8076 29.5534 44.3845C28.1786 44.2037 26.7934 44.114 25.4068 44.1159C24.8812 44.1159 24.7605 44.1159 24.7083 44.5984C24.6055 46.1648 24.6666 47.7375 24.8904 49.2912C24.9681 49.8735 25.0674 49.9748 25.6413 50.2652C27.2804 51.0956 33.4266 52.2156 35.4743 52.0829Z" fill="#191919"/>
<path d="M18.2694 47.7179C18.0237 50.6585 18.4524 56.2118 18.9318 59.2356C18.972 59.4994 19.3846 59.4636 19.3484 59.1954C18.8553 55.3934 18.6044 51.5638 18.5972 47.73C18.5924 47.6908 18.5737 47.6546 18.5446 47.6279C18.5156 47.6012 18.4779 47.5857 18.4384 47.5843C18.399 47.5828 18.3603 47.5955 18.3293 47.62C18.2984 47.6445 18.2771 47.6792 18.2694 47.7179Z" fill="#191919"/>
<path d="M9.00247 53.3553C10.2906 52.9431 11.455 52.2146 12.389 51.2364C12.6593 50.9549 12.755 50.8109 12.4799 50.4514C11.9537 49.8368 11.577 49.1086 11.3796 48.324C11.1821 47.5393 11.1692 46.7196 11.3418 45.9291C11.4174 45.5149 11.3418 45.2789 10.9119 45.3943C9.64672 45.7345 7.4763 46.5308 6.58794 47.3447C6.44638 47.4742 6.61287 47.7135 6.77454 47.6178C8.05408 46.8147 9.45185 46.2176 10.9167 45.8483C10.5548 47.9644 11.1126 49.1617 12.2346 50.8161C11.7528 51.3337 11.2039 51.7845 10.6026 52.1565C8.7093 50.609 8.21827 48.6264 8.32685 47.7006C8.34897 47.514 7.9625 47.2181 7.96733 47.7573C7.97526 48.6478 8.18642 49.5247 8.58472 50.3212C8.98302 51.1176 9.55794 51.8126 10.2656 52.3531C9.89463 52.5593 9.50709 52.7342 9.10703 52.876C6.71582 53.7205 5.47076 53.1784 4.97892 50.714C4.19673 46.795 7.40552 40.8524 9.91295 37.9468C11.9281 35.6111 12.6166 35.5443 15.7526 34.4625C16.0353 35.2499 16.4729 35.9726 17.0395 36.5879C17.5756 37.1719 17.7956 36.4114 19.3627 35.1953C19.8967 35.6989 20.3828 36.2508 20.8149 36.8441C21.0003 37.0745 21.2171 37.0552 21.4986 36.9418C23.1463 36.1804 24.6304 35.106 25.8684 33.7785C26.1756 34.0721 30.0106 35.3581 32.3499 37.6677C34.5139 39.8047 37.4532 45.0456 37.8526 48.1571C37.8871 48.4253 38.2081 48.3525 38.1743 48.0819C37.7721 44.9475 34.9876 39.6917 32.6246 37.3846C30.845 35.6453 28.3919 34.4002 26.0868 33.5147C26.1096 33.4861 26.1264 33.4532 26.1363 33.4179C26.1461 33.3827 26.1488 33.3458 26.1441 33.3096C26.1394 33.2733 26.1275 33.2383 26.109 33.2067C26.0905 33.1752 26.0658 33.1476 26.0365 33.1258C25.6446 32.7676 25.2237 32.4425 24.7781 32.1538C24.3692 31.8952 24.3543 31.8843 23.9771 32.2133C22.4151 33.575 21.5875 34.0495 19.3981 34.6459C18.6864 34.1709 18.0555 33.5846 17.5297 32.9094C17.3033 32.6195 17.284 32.5793 16.9406 32.757C16.4624 33.0047 15.4997 33.7105 15.6227 34.0656C12.2965 35.2222 11.6945 35.2061 9.58519 37.6886C7.06891 40.6505 3.82032 46.5481 4.54862 50.6331C5.01311 53.2379 6.34504 54.2031 9.00247 53.3553ZM24.4186 32.4031C24.8661 32.6862 25.2893 33.0059 25.6838 33.359C24.4438 34.7724 22.9004 35.8872 21.1688 36.6201C20.7298 36.0115 20.2227 35.4549 19.6575 34.9612C21.4602 34.5921 23.1153 33.7032 24.4186 32.4043V32.4031ZM17.2201 33.0723C17.7005 33.7983 18.3247 34.4179 19.0543 34.8928C18.464 35.313 17.9329 35.8104 17.475 36.372C16.8253 35.703 16.319 34.9085 15.9871 34.0371C16.3268 33.6347 16.7459 33.3067 17.2181 33.0735L17.2201 33.0723Z" fill="#191919"/>
<path d="M21.7741 48.0365C21.7741 47.9685 21.7492 47.8776 21.674 47.8567C21.3028 47.755 21.4464 48.1784 20.2379 48.1459C20.1973 48.1388 20.1555 48.1471 20.1207 48.1691C20.0858 48.1911 20.0604 48.2253 20.0494 48.265C20.0384 48.3047 20.0425 48.3471 20.061 48.384C20.0795 48.4208 20.111 48.4495 20.1494 48.4644C20.7354 48.6996 21.7685 48.369 21.7741 48.0365Z" fill="#191919"/>
<path d="M21.0482 43.4462C20.8524 43.4145 20.8387 43.7084 21.008 43.774C22.2294 44.2497 22.722 43.9397 23.8665 44.896C24.0053 45.0122 24.2719 44.9121 24.21 44.6949C24.0185 44.0173 22.3408 43.6561 21.0482 43.4462Z" fill="#191919"/>
<path d="M21.9743 49.3133C22.2156 49.1383 22.0632 48.8242 21.7672 48.9561C21.4462 49.123 21.0743 49.1636 20.7249 49.07C20.5383 49.0358 20.4952 49.2477 20.6545 49.384C20.9553 49.6414 21.6695 49.5344 21.9743 49.3133Z" fill="#191919"/>
<path d="M19.7147 47.1694C19.5539 47.2076 19.5828 47.5129 19.755 47.502C21.6708 47.3814 22.2395 45.3348 21.8417 44.9825C21.8151 44.9588 21.7807 44.9457 21.745 44.9457C21.7094 44.9457 21.6749 44.9588 21.6483 44.9825C21.2896 45.2994 21.6974 46.7025 19.7147 47.1694Z" fill="#191919"/>
<path d="M21.46 50.3022C22.8274 50.6529 24.3483 49.6559 24.3153 49.103C24.3153 48.9662 24.1448 48.8299 24.0129 48.9276C23.881 49.0254 23.4326 50.0883 21.5095 49.9837C21.4714 49.985 21.4349 49.9996 21.4063 50.0249C21.3778 50.0503 21.3589 50.0848 21.3531 50.1225C21.3472 50.1602 21.3547 50.1988 21.3742 50.2316C21.3937 50.2644 21.4241 50.2894 21.46 50.3022Z" fill="#191919"/>
<path d="M12.1659 45.6517C12.7402 44.9089 14.1148 43.4801 15.1652 44.0724C15.4041 44.2072 15.5722 43.8456 15.3317 43.7105C14.1003 43.02 12.369 44.364 11.9178 45.3625C11.7429 45.7486 12.0586 45.7904 12.1659 45.6517Z" fill="#191919"/>
<path d="M15.9549 48.4076C15.5073 48.3592 15.0707 48.2378 14.6624 48.0481C14.5015 48.0203 14.0994 48.4466 15.1675 48.6915C16.378 48.9702 16.1664 48.4213 15.9549 48.4076Z" fill="#191919"/>
<path d="M14.4186 49.0402C13.9839 48.8287 13.9895 49.4235 14.7351 49.6137C14.9631 49.672 15.6484 49.6632 15.5841 49.3861C15.5254 49.1359 15.2949 49.4661 14.4186 49.0402Z" fill="#191919"/>
<path d="M14.8763 50.3022C15.0633 50.2057 14.9692 49.9185 14.7714 49.9805C14.0877 50.1896 13.6128 50.1691 12.6528 49.812C12.619 49.8019 12.5828 49.8032 12.5498 49.8157C12.5167 49.8283 12.4888 49.8513 12.4702 49.8813C12.4515 49.9113 12.4433 49.9466 12.4467 49.9818C12.4502 50.0169 12.4651 50.0499 12.4892 50.0758C12.8376 50.3073 13.2379 50.4491 13.6543 50.4886C14.0708 50.5281 14.4906 50.4641 14.8763 50.3022Z" fill="#191919"/>
<path d="M16.6217 47.4996C15.3702 46.8509 15.079 46.464 14.742 45.7791C14.6716 45.6356 14.3398 45.6895 14.4553 46.0771C14.6873 46.8521 15.7775 47.4971 16.458 47.8466C16.4812 47.8606 16.507 47.8696 16.5339 47.8729C16.5608 47.8763 16.5881 47.8739 16.614 47.8661C16.6399 47.8582 16.6639 47.845 16.6844 47.8273C16.7049 47.8096 16.7214 47.7877 16.7329 47.7632C16.7445 47.7387 16.7507 47.7121 16.7513 47.685C16.7518 47.6579 16.7467 47.631 16.7362 47.606C16.7257 47.5811 16.7101 47.5586 16.6904 47.54C16.6706 47.5215 16.6472 47.5073 16.6217 47.4983V47.4996Z" fill="#191919"/>
<path d="M61.0795 54.6659C60.3982 55.5161 60.0142 57.1798 61.0067 57.8522C62.1034 58.595 63.4735 57.8272 64.1435 56.8597C64.9076 55.7606 65.0129 54.1733 64.1435 53.6167C63.1868 53.0034 61.8572 53.6955 61.0795 54.6659ZM64.1652 55.8768C63.7228 57.0145 62.2871 58.1534 61.291 57.4971C60.5145 56.9855 60.8889 55.5221 61.4205 54.898C61.8922 54.343 62.7335 53.7048 63.5234 53.8467C64.47 54.0168 64.427 55.2052 64.1652 55.8768Z" fill="#191919"/>
<path d="M51.2478 62.0121C51.2249 62.0121 44.3042 62.1203 43.0889 62.1693C42.164 62.2067 41.9512 62.2763 41.9512 63.116C41.9228 63.3084 41.9625 63.5048 42.0634 63.671C42.1644 63.8373 42.3203 63.963 42.5042 64.0265C42.661 64.0615 42.7318 63.8624 42.6273 63.7486C42.5433 63.677 42.4786 63.5856 42.4388 63.4826C42.3991 63.3797 42.3856 63.2685 42.3996 63.159C42.427 62.6765 42.4133 62.625 43.0572 62.6041C45.6675 62.518 48.1416 62.6089 50.8541 62.4854C51.432 62.4593 51.5937 62.5108 51.6757 61.9393C52.1909 58.3392 52.6924 53.7056 53.3072 49.7504C53.596 47.8933 55.2211 47.4694 56.9009 47.4155C60.5577 47.2973 65.6377 47.2076 69.3379 47.1513C72.4968 47.1031 72.0963 48.3847 71.9233 50.3376C71.5212 54.8892 71.0732 58.8741 70.4917 62.7907C70.4539 63.0428 70.3468 63.2795 70.1824 63.4743C70.1585 63.4878 70.1377 63.5062 70.1214 63.5283C70.1052 63.5504 70.0937 63.5757 70.0878 63.6025C70.082 63.6293 70.0819 63.6571 70.0875 63.6839C70.0931 63.7108 70.1043 63.7362 70.1204 63.7584C70.1365 63.7807 70.1571 63.7993 70.1808 63.813C70.2046 63.8267 70.231 63.8353 70.2583 63.8381C70.2856 63.841 70.3132 63.838 70.3393 63.8294C70.3654 63.8209 70.3893 63.8069 70.4096 63.7884C70.7055 63.4952 70.8926 63.1099 70.9401 62.6962C71.4315 58.7233 71.9583 54.8654 72.3239 50.8507C72.6138 47.6649 72.6219 46.6884 69.6632 46.6748C66.1838 46.6587 59.8776 46.9635 57.1603 46.9683C54.864 46.972 53.2594 47.5044 52.9067 49.8675C52.3055 53.9067 51.7324 58.0593 51.2478 62.0121Z" fill="#191919"/>
<path d="M31.3417 60.4147C25.9126 61.127 16.1665 61.7937 12.9762 60.2418C12.9259 61.0059 12.9327 62.8293 12.9122 63.8419C14.5735 63.8214 30.2652 63.7554 31.3461 63.7124C31.3598 63.1956 31.4081 61.2247 31.3417 60.4147Z" fill="#191919"/>
<path d="M50.4195 39.1135C50.3958 38.3984 50.3343 37.685 50.2353 36.9764C50.2055 36.8353 49.9454 36.8128 49.9618 36.9764C50.1046 38.384 50.4199 42.0838 49.6208 43.0755C49.1873 43.6136 48.1823 43.7833 46.4663 43.244C46.2391 43.1724 46.1804 43.4049 46.3891 43.5078C47.0185 43.8136 47.7102 43.9695 48.4099 43.963C48.4744 44.6128 48.6173 45.2523 48.8354 45.8676C48.8965 46.0386 49.168 45.9662 49.1169 45.7872C49.0011 45.385 48.9137 44.9751 48.8555 44.5606C51.4249 44.333 54.0099 42.3693 53.3797 42.13C52.7496 41.8908 51.3911 41.0092 50.4195 39.1135Z" fill="#191919"/>
<path d="M44.3497 45.192V45.9678C44.346 46.0104 44.3595 46.0528 44.3871 46.0855C44.4147 46.1183 44.4542 46.1387 44.4969 46.1423C44.5395 46.1459 44.5819 46.1325 44.6146 46.1049C44.6473 46.0773 44.6678 46.0378 44.6714 45.9951C44.7696 44.7322 44.7498 43.4629 44.6123 42.2036C44.562 41.748 44.6372 41.633 44.2503 41.5666C43.6994 41.4717 43.4979 40.8829 43.4106 40.3127C43.3302 39.7827 43.5132 39.2269 43.966 39.2019C44.3822 39.1802 44.5125 39.6982 44.7076 39.095C44.8182 38.5426 44.8082 37.9729 44.6782 37.4248C45.8002 37.4248 49.9726 37.2933 52.3887 35.0372C52.7253 34.7232 51.128 34.7847 50.3562 33.6297C48.8502 31.374 44.496 30.016 42.9803 33.9325C41.05 33.1632 39.9903 34.9548 40.5956 39.9339C40.863 42.1344 39.0867 44.0302 39.0674 44.2578C39.0481 44.4854 41.4461 45.3991 44.3497 45.192Z" fill="#191919"/>
<path d="M23.2845 39.9713C22.9013 39.8805 22.525 39.7626 22.1585 39.6186C22.5273 39.1203 22.9141 38.6333 23.2511 38.1141C23.2789 38.0787 23.2914 38.0338 23.286 37.9892C23.2806 37.9446 23.2577 37.904 23.2224 37.8762C23.187 37.8485 23.1421 37.836 23.0975 37.8413C23.0529 37.8467 23.0122 37.8696 22.9845 37.905C22.5035 38.4397 22.0532 39.0012 21.6357 39.5868C21.6006 39.6358 21.5863 39.6967 21.596 39.7562C21.6057 39.8157 21.6387 39.8688 21.6876 39.9041C21.9916 40.0495 22.3087 40.1657 22.6346 40.2512C22.0953 40.6404 21.2918 41.0912 20.7823 41.3892C20.4606 41.5775 20.5543 41.8682 20.9005 41.7439C21.7398 41.3411 22.5525 40.8851 23.3336 40.3786C23.5515 40.2692 23.566 40.0376 23.2845 39.9713Z" fill="#38A1FF"/>
<path d="M16.5171 41.6896C16.2509 40.9605 15.9308 40.2463 15.6067 39.5409C15.5218 39.356 15.3252 39.245 15.1904 39.5277C15.0843 39.7581 14.9546 39.9769 14.8036 40.1808C14.4605 39.5991 14.1674 38.9894 13.9273 38.3582C13.9194 38.3374 13.9074 38.3184 13.8921 38.3022C13.8769 38.2861 13.8586 38.2731 13.8383 38.264C13.818 38.2549 13.7961 38.2499 13.7739 38.2492C13.7516 38.2486 13.7295 38.2524 13.7087 38.2603C13.6879 38.2682 13.6689 38.2801 13.6527 38.2954C13.6366 38.3107 13.6236 38.329 13.6145 38.3493C13.6054 38.3696 13.6004 38.3915 13.5997 38.4137C13.5991 38.4359 13.6029 38.4581 13.6108 38.4789C13.8705 39.2519 14.1917 40.003 14.5711 40.7249C14.5852 40.762 14.6088 40.7947 14.6395 40.8199C14.6701 40.8451 14.7068 40.8618 14.7459 40.8685C14.785 40.8751 14.8252 40.8715 14.8625 40.8579C14.8997 40.8442 14.9328 40.8211 14.9584 40.7908C15.119 40.577 15.2584 40.348 15.3746 40.1072C15.6712 40.6648 15.9386 41.2374 16.1757 41.8228C16.1815 41.8489 16.1929 41.8734 16.2091 41.8947C16.2252 41.916 16.2458 41.9335 16.2694 41.9461C16.293 41.9587 16.319 41.966 16.3457 41.9676C16.3724 41.9692 16.3991 41.965 16.424 41.9552C16.4489 41.9455 16.4714 41.9306 16.49 41.9113C16.5086 41.8921 16.5228 41.8691 16.5316 41.8439C16.5405 41.8186 16.5438 41.7918 16.5413 41.7652C16.5388 41.7385 16.5305 41.7128 16.5171 41.6896Z" fill="#38A1FF"/>
<path d="M9.65152 53.3622C7.66569 56.0755 7.83097 59.7564 4.18947 62.5835C3.78209 62.8996 3.73584 63.5455 4.56267 62.8976C7.80001 60.3604 8.14626 56.9425 9.96761 53.5677C10.0786 53.3606 9.77217 53.1977 9.65152 53.3622Z" fill="#38A1FF"/>
<path d="M33.4784 60.0094C27.4581 57.4191 27.0773 52.1883 24.1484 50.0894C23.9731 49.964 23.7965 50.227 23.9208 50.3762C27.286 54.4271 27.6689 58.1574 33.3312 60.4895C33.6348 60.6142 33.7679 60.134 33.4784 60.0094Z" fill="#38A1FF"/>
<path d="M68.7329 37.4735C68.5479 40.1237 68.5555 43.3562 66.398 45.5596C66.1727 45.7892 66.5049 46.1668 66.7277 45.9348C68.9649 43.6067 69.1969 40.6778 69.1607 37.5008C69.1625 37.4727 69.1588 37.4445 69.1497 37.4179C69.1406 37.3912 69.1264 37.3667 69.1078 37.3455C69.0892 37.3244 69.0666 37.3071 69.0413 37.2947C69.016 37.2823 68.9886 37.275 68.9605 37.2732C68.9324 37.2714 68.9042 37.2751 68.8776 37.2842C68.8509 37.2933 68.8263 37.3076 68.8052 37.3262C68.7841 37.3448 68.7668 37.3674 68.7544 37.3926C68.742 37.4179 68.7347 37.4454 68.7329 37.4735Z" fill="#38A1FF"/>
<path d="M68.273 18.3491C68.2167 17.6891 68.2151 16.4018 68.0884 15.8557C68.0482 15.6852 67.7764 15.6418 67.7289 15.8332C67.646 16.7028 67.6675 17.5791 67.7928 18.4436C67.831 18.7428 68.3016 18.6881 68.273 18.3491Z" fill="#38A1FF"/>
<path d="M58.2317 26.9061C58.5687 26.931 59.9795 26.6576 60.4938 26.6077C60.7556 26.5828 60.7218 26.1331 60.4484 26.1529C60.0414 26.1814 58.5277 26.3346 58.1521 26.5602C58.1208 26.5821 58.0969 26.6128 58.0832 26.6484C58.0695 26.684 58.0668 26.7228 58.0753 26.76C58.0839 26.7972 58.1033 26.8309 58.1312 26.8569C58.159 26.883 58.1941 26.9001 58.2317 26.9061Z" fill="#38A1FF"/>
<path d="M60.7996 19.8282C61.3224 20.2822 61.5926 20.4893 61.9373 20.8046C62.1834 21.0294 62.5441 20.7918 62.3334 20.534C61.9009 20.0731 61.422 19.6581 60.9042 19.2957C60.4839 18.9205 60.2454 19.3488 60.7996 19.8282Z" fill="#38A1FF"/>
<path d="M74.4787 17.6662C74.06 17.9646 73.3928 19.0894 73.1475 19.5189C73.129 19.5468 73.1163 19.5782 73.1104 19.6111C73.1045 19.6441 73.1054 19.6779 73.1131 19.7105C73.1208 19.7431 73.1352 19.7737 73.1552 19.8005C73.1753 19.8273 73.2007 19.8497 73.2297 19.8663C73.2588 19.8829 73.291 19.8933 73.3243 19.897C73.3576 19.9006 73.3913 19.8973 73.4232 19.8874C73.4552 19.8774 73.4848 19.861 73.5101 19.8391C73.5355 19.8172 73.5561 19.7904 73.5706 19.7602C73.9474 19.1232 74.3628 18.5075 74.7493 17.8761C74.8225 17.7559 74.6041 17.5753 74.4787 17.6662Z" fill="#38A1FF"/>
<path d="M63.0342 25.9614C63.195 28.16 64.7831 30.0397 66.4999 31.3004C66.7272 31.4673 66.9021 31.1866 66.707 31.0048C65.4097 29.7831 64.0597 28.501 63.6463 26.6809C62.188 20.2613 73.5601 19.3504 73.6257 25.248C73.6494 27.4031 72.2584 29.1815 70.9835 30.7897C70.7853 31.0398 71.0728 31.2477 71.284 31.0173C72.6006 29.5784 73.9269 27.8314 74.099 25.7829C74.6826 18.9455 62.544 19.3162 63.0342 25.9614Z" fill="#38A1FF"/>
<path d="M78.1749 24.0247C77.383 24.1168 76.5819 24.2221 75.8022 24.3641C75.5749 24.4043 75.6678 24.7578 75.8749 24.7417C76.6715 24.6803 77.4665 24.5908 78.2601 24.4731C78.5296 24.4333 78.4274 23.9957 78.1749 24.0247Z" fill="#38A1FF"/>
<path d="M70.4644 26.526C72.3247 24.8905 70.1294 23.3124 69.3403 25.2013C69.1466 25.6665 68.9943 26.1479 68.8851 26.6398C68.4548 26.7163 68.0167 26.7384 67.5809 26.7058C67.4128 26.0801 67.1828 25.057 66.5353 24.7755C65.211 24.1996 64.5169 26.7191 67.1884 27.1558C67.4894 28.4225 67.7242 29.704 67.8918 30.9952C67.897 31.0352 67.9167 31.072 67.947 31.0987C67.9774 31.1254 68.0165 31.1401 68.0569 31.1401C68.0973 31.1401 68.1363 31.1254 68.1667 31.0987C68.1971 31.072 68.2167 31.0352 68.2219 30.9952C68.2002 29.7193 68.0282 28.4505 67.7096 27.2149C68.0692 27.2294 68.4294 27.2125 68.7862 27.1647C68.6146 28.418 68.6841 29.6927 68.9909 30.92C69.0588 31.2316 69.4031 31.1472 69.346 30.8468C69.108 29.5984 69.1025 28.3169 69.3299 27.0665C69.7494 26.9904 70.1409 26.8038 70.4644 26.526ZM70.478 24.9009C71.1126 25.3184 70.1209 26.3487 69.4493 26.5096C69.8205 25.0192 70.2436 24.7465 70.478 24.9009ZM65.9265 25.8979C65.6647 25.3879 66.1175 24.9351 66.5341 25.3654C66.7938 25.7418 66.9678 26.1705 67.044 26.6214C66.8179 26.5827 66.6018 26.4986 66.409 26.3742C66.2162 26.2498 66.0505 26.0876 65.922 25.8975L65.9265 25.8979Z" fill="#38A1FF"/>
<path d="M77.6718 30.4514C76.9907 30.0592 76.2727 29.7346 75.5283 29.4823C75.3369 29.43 75.2167 29.7235 75.3755 29.8325C76.0166 30.2656 76.7855 30.4856 77.4535 30.8781C77.8761 31.1287 78.193 30.8065 77.6718 30.4514Z" fill="#38A1FF"/>
<path d="M62.8819 31.2618C62.5859 31.3177 61.5817 32.5133 61.4341 32.79C61.1369 33.353 61.5576 33.4117 61.6505 33.2452C62.0719 32.4888 62.8195 31.9724 63.0387 31.6519C63.1417 31.5027 63.1183 31.2172 62.8819 31.2618Z" fill="#38A1FF"/>
<path d="M66.623 31.7601C66.5092 34.8233 67.1667 36.7034 68.8372 36.7066C70.965 36.7098 71.1951 34.1557 71.0515 31.6045C69.5831 31.7908 68.1008 31.8429 66.623 31.7601ZM70.0252 34.5503C69.4479 34.9369 68.7856 35.1782 68.0949 35.2536C67.8399 35.258 67.7908 34.9753 68.0333 34.9146C68.6585 34.7651 69.2515 34.5036 69.7835 34.1429C69.8368 34.12 69.8965 34.1174 69.9516 34.1353C70.0067 34.1533 70.0534 34.1907 70.083 34.2406C70.1126 34.2904 70.123 34.3493 70.1124 34.4063C70.1018 34.4633 70.0708 34.5144 70.0252 34.5503ZM70.0936 33.0325C69.5961 33.429 67.9111 33.8517 67.6674 33.8368C67.4876 33.8368 67.3778 33.6426 67.556 33.5252C67.8717 33.3168 68.8831 33.1419 69.8318 32.6404C70.1523 32.4715 70.4 32.788 70.0952 33.0325H70.0936Z" fill="#38A1FF"/>
<path d="M17.6545 43.096C15.9654 43.1764 15.301 43.8902 15.3992 45.1872C15.4973 46.4841 16.2501 46.7805 17.6589 46.8147C17.3393 46.2473 17.171 45.6072 17.1703 44.9559C17.1695 44.3047 17.3362 43.6642 17.6545 43.096Z" fill="#38A1FF"/>
<path d="M20.6432 45.0416C20.6681 43.5786 19.2759 43.1575 18.215 43.096C17.8618 43.6509 17.6742 44.2951 17.6742 44.9529C17.6742 45.6108 17.8618 46.2549 18.215 46.8099C19.3527 46.762 20.3038 46.5187 20.5612 45.5789C20.8161 45.6879 20.9311 45.9408 21.1278 45.7675C21.4294 45.5001 20.8523 45.151 20.6432 45.0416Z" fill="#38A1FF"/>
<path d="M47.9684 49.7207C47.4086 48.922 45.2511 47.3926 43.4603 46.1342C41.9514 46.5891 39.15 47.9094 37.6387 49.45C36.1274 50.9907 33.6413 58.1796 34.2795 61.739C34.7219 64.2058 36.6261 63.8829 41.5621 63.8374C41.4527 63.4936 41.3462 62.2646 41.9695 61.8983C42.5929 61.5319 48.6967 61.5765 50.845 61.5958C50.9339 61.1109 51.1068 59.7753 51.3003 58.1615C47.5635 57.9338 42.8253 58.533 39.115 58.833C38.8874 58.8511 38.8717 58.6396 39.0853 58.6054C39.5899 58.499 40.0986 58.4131 40.6102 58.3481C40.6718 57.438 40.9895 54.4472 41.3293 53.5689C41.4009 53.3851 41.6003 53.4526 41.5682 53.6328C41.304 55.1779 41.1308 56.7372 41.0494 58.3026C44.469 57.8994 47.9111 57.7169 51.3542 57.7565C52.5023 48.5496 52.3403 47.6942 54.4379 46.9305C53.8347 46.6257 50.9444 45.7474 49.5429 45.7474C49.4343 46.2706 48.6147 48.858 47.9684 49.7207Z" fill="#38A1FF"/>
<path d="M57.9 46.522C59.1197 46.4789 61.3476 46.4218 62.135 46.3788C62.1897 46.0623 62.283 45.5745 62.4652 44.8333C62.01 44.5116 59.5657 43.2585 58.8458 42.9432C58.7899 43.1869 58.13 45.6175 57.9 46.522Z" fill="#38A1FF"/>
</svg>
