<svg width="111" height="112" viewBox="0 0 111 112" fill="none" xmlns="http://www.w3.org/2000/svg">
<path d="M36.2372 32.8739L43.0315 33.3725C43.0921 33.3765 43.1525 33.3616 43.2042 33.3297C43.2559 33.2978 43.2964 33.2506 43.3201 33.1947L45.8889 26.8781C45.9117 26.8214 45.9521 26.7735 46.0041 26.7414C46.056 26.7093 46.1169 26.6946 46.1778 26.6996C46.2387 26.7045 46.2964 26.7288 46.3425 26.7689C46.3886 26.809 46.4207 26.8628 46.4341 26.9224L48.0687 33.5388C48.0834 33.5974 48.1158 33.6501 48.1615 33.6898C48.2072 33.7294 48.264 33.7541 48.3241 33.7604L55.1189 34.2591C55.1793 34.2643 55.2366 34.2882 55.2828 34.3276C55.3289 34.367 55.3616 34.4198 55.3763 34.4786C55.3909 34.5375 55.3868 34.5995 55.3645 34.6559C55.3422 34.7123 55.3028 34.7603 55.2519 34.7932L49.4583 38.3893C49.4064 38.4208 49.3657 38.4678 49.3419 38.5236C49.318 38.5795 49.3122 38.6414 49.3253 38.7007L50.9599 45.317C50.9748 45.3763 50.9704 45.4388 50.9473 45.4955C50.9243 45.5521 50.8839 45.6 50.8319 45.6321C50.7799 45.6643 50.719 45.679 50.658 45.6743C50.5971 45.6695 50.5392 45.6455 50.4928 45.6057L45.2777 41.2134C45.2293 41.175 45.1703 41.1522 45.1086 41.1483C45.0469 41.1443 44.9855 41.1593 44.9325 41.1913L39.1395 44.7829C39.0873 44.8135 39.0268 44.8272 38.9665 44.8221C38.9061 44.817 38.8489 44.7933 38.8025 44.7543C38.7562 44.7153 38.723 44.6629 38.7077 44.6044C38.6923 44.5458 38.6955 44.4839 38.7168 44.4272L41.2855 38.1105C41.3059 38.0535 41.3093 37.9918 41.2955 37.9328C41.2816 37.8738 41.251 37.8201 41.2074 37.7781L35.9923 33.3858C35.9508 33.341 35.9237 33.2846 35.9145 33.2242C35.9054 33.1637 35.9146 33.1019 35.941 33.0467C35.9673 32.9915 36.0097 32.9456 36.0625 32.9147C36.1154 32.8839 36.1762 32.8697 36.2372 32.8739Z" fill="#38A1FF"/>
<path d="M30.0542 52.6448C30.741 52.3819 31.3942 52.0386 32.0002 51.622C33.2232 50.7494 34.1972 49.5727 34.826 48.2082C35.3535 47.0358 36.0201 44.6161 35.0593 43.7822C34.8611 43.6155 34.6062 43.5319 34.3478 43.5489C34.1677 43.5823 33.9977 43.6569 33.8511 43.7669C33.7045 43.8768 33.5853 44.0192 33.5028 44.1828C33.2258 44.672 33.2358 44.9945 33.269 45.0388C33.3244 45.0943 33.4352 44.8626 33.7472 44.4715C34.4005 43.647 35.1008 44.1473 34.6703 45.9841C34.3869 47.2204 33.8204 48.3741 33.0154 49.3543C32.2105 50.3345 31.189 51.1146 30.0315 51.633C29.1538 52.0093 28.6884 52.2204 28.2855 53.2011C27.5098 55.0889 27.7946 57.2316 28.2191 59.2501C28.4462 60.33 28.5969 60.4397 28.5969 59.3055C28.5969 57.656 28.2833 55.5649 29.0086 53.7569C29.0776 53.4996 29.2092 53.2635 29.3916 53.0694C29.5741 52.8754 29.8017 52.7295 30.0542 52.6448Z" fill="#191919"/>
<path d="M29.8431 69.1356C29.33 66.701 29.0092 64.8658 28.7754 63.8984C28.1659 61.3673 28.351 65.5828 28.9311 69.0913C29.6193 73.2503 30.7596 78.1972 33.9462 81.2009C34.0643 81.3338 34.2182 81.43 34.3894 81.478C33.8414 79.6733 31.8944 78.8754 29.8431 69.1356Z" fill="#191919"/>
<path d="M26.5628 83.4693C23.8683 77.2109 22.7673 69.9911 22.1368 63.2312C21.9877 61.6294 21.842 61.4521 21.77 63.0977C21.4192 71.1242 24.2916 85.576 30.5323 90.7528C31.7774 91.7856 31.9558 91.8094 30.8997 90.5971C29.699 89.5659 27.5308 85.7189 26.5628 83.4693Z" fill="#191919"/>
<path d="M42.5195 73.3057C42.3322 73.4719 42.1449 73.6426 41.9654 73.8171C41.7992 73.9756 41.5504 74.1385 41.4667 74.3623C41.4197 74.5323 41.4254 74.7125 41.4829 74.8792C41.5405 75.0459 41.6473 75.1912 41.7892 75.296C42.2059 75.7004 42.8558 76.0163 42.6901 75.4622C42.6674 75.4068 42.3577 74.7175 42.3449 74.7175C42.9743 74.2393 43.4592 73.5966 43.7462 72.8602C43.841 72.2939 42.9539 72.9167 42.5195 73.3057Z" fill="#191919"/>
<path d="M44.6101 77.7428C44.6657 77.6745 44.6977 77.59 44.7013 77.5019C44.7049 77.4139 44.6798 77.327 44.6299 77.2544C44.58 77.1818 44.5079 77.1273 44.4244 77.0991C44.3409 77.0709 44.2506 77.0704 44.1668 77.0979C42.2059 78.5529 41.5626 76.3637 41.6092 77.053C41.7438 79.199 44.3031 78.2471 44.6101 77.7428Z" fill="#191919"/>
<path d="M41.5858 69.447C43.5329 68.4707 43.7523 70.6256 43.821 69.9806C44.0371 67.9455 41.6446 68.3488 41.2966 68.7577C40.9486 69.1667 41.408 69.5362 41.5858 69.447Z" fill="#191919"/>
<path d="M48.0466 72.7389C48.08 72.8137 48.1363 72.8759 48.2072 72.9168C48.2782 72.9577 48.3603 72.975 48.4418 72.9663C48.5232 72.9576 48.5999 72.9234 48.6606 72.8685C48.7214 72.8136 48.7633 72.7409 48.7802 72.6607C48.9581 72.1621 48.1552 69.882 46.5007 71.0373C45.9699 71.408 47.9286 70.5591 48.0466 72.7389Z" fill="#191919"/>
<path d="M45.5111 73.2603C45.4778 73.4603 45.7327 73.6742 46.0785 73.7384C46.3893 73.7939 46.6786 73.7163 46.7567 73.5495C46.8483 73.5642 46.9413 73.5679 47.0337 73.5606C47.5501 73.5262 47.9136 73.1539 47.6122 73.1267C47.3717 73.1288 47.1312 73.1177 46.8919 73.0935C46.6562 73.0085 46.4145 72.9415 46.1688 72.8929C45.9372 72.8813 45.5527 73.0126 45.5111 73.2603Z" fill="#191919"/>
<path d="M41.6191 71.7936C42.0623 72.1088 42.5195 71.8717 42.5195 71.6157C42.51 71.4952 42.4717 71.3788 42.4079 71.2762C42.3441 71.1736 42.2565 71.0879 42.1527 71.0261C41.931 70.876 41.7648 70.9331 41.2744 70.6704C41.1298 70.5812 41.0184 70.4698 40.8866 70.3812C40.4909 70.0842 40.7536 70.9669 41.2872 71.204C41.2814 71.3235 41.3095 71.4423 41.3682 71.5466C41.427 71.6509 41.5139 71.7365 41.6191 71.7936Z" fill="#191919"/>
<path d="M65.9719 50.3986C66.3043 51.9794 67.028 52.0719 67.6397 52.7451C68.1384 53.2122 68.032 53.9242 67.9622 54.5354C67.0158 62.8539 63.2618 68.4325 59.0884 75.6295C57.2467 78.8061 59.5871 75.7403 61.6129 72.6829C64.0242 69.1586 65.9888 65.3488 67.4618 61.3407C68.1902 59.0264 68.6675 56.6404 68.8853 54.224C68.9241 53.8678 68.909 53.5079 68.8404 53.1563C69.1412 53.3872 69.4984 53.5332 69.8749 53.579C70.0638 53.5679 70.0744 53.502 69.9525 53.4128C69.8184 53.3136 69.5723 53.1601 69.2743 52.9235C68.2653 52.1218 66.9825 51.5228 66.6833 50.1531C66.3597 48.6742 66.1941 46.4407 67.5732 45.3713C67.8886 45.2084 68.2415 45.1319 68.596 45.1497C68.8515 45.1325 68.9961 45.1386 69.0188 45.1048C69.041 45.0826 68.9634 45.0272 68.7418 44.9718C68.364 44.867 67.9652 44.8629 67.5854 44.9602C66.0882 45.3508 65.4932 48.1412 65.9719 50.3986Z" fill="#191919"/>
<path d="M70.3197 48.9751C70.3923 48.718 70.4306 48.2642 70.553 47.7079C70.6882 47.0851 70.8517 46.4618 71.009 45.8396C71.0925 45.3954 71.2464 44.9674 71.465 44.5718C71.5426 44.4493 71.5986 44.3718 71.5759 44.3047C71.5504 44.1762 71.0982 44.1485 70.6755 44.6499C69.9125 45.5542 69.2836 47.9983 69.9413 48.9862C70.1142 49.2461 70.2477 49.2295 70.3197 48.9751Z" fill="#191919"/>
<path d="M71.7427 49.42C72.1244 50.0362 72.2236 48.9457 72.3322 48.2304C72.4187 47.6679 72.5375 47.1109 72.688 46.5621C72.8819 45.8639 73.3196 44.7142 72.7328 45.061C72.3608 45.3444 72.0693 45.7201 71.8873 46.1509C71.2628 47.4397 71.3781 48.831 71.7427 49.42Z" fill="#191919"/>
<path d="M74.1668 49.6311C74.271 49.2797 74.3382 48.9183 74.3674 48.5529C74.4759 48.0912 74.617 47.6377 74.7896 47.1959C75.347 45.5337 74.8783 45.204 74.0228 46.7405C73.7003 47.2434 73.5161 47.8225 73.4886 48.4194C73.4831 48.8473 73.5905 49.2691 73.8 49.6422C73.9446 49.8428 74.0749 49.8522 74.1668 49.6311Z" fill="#191919"/>
<path d="M75.4346 52.5224C75.177 52.308 75.4596 58.1741 72.7196 66.0776C69.8888 74.2465 63.6132 86.2619 56.8954 91.2199C56.368 91.5578 55.8629 91.9292 55.3833 92.332C55.35 92.3985 55.8742 92.2455 56.9292 91.6427C60.3379 89.6945 63.2896 85.924 65.5248 82.6908C68.8379 77.7705 71.4887 72.4353 73.4089 66.8229C74.817 62.8238 75.5533 58.6193 75.5881 54.3797C75.6198 53.7565 75.5682 53.1319 75.4346 52.5224Z" fill="#191919"/>
<path d="M35.2139 52.3113C38.0026 52.9308 40.942 53.563 43.7762 53.5347C55.8093 53.4128 59.7417 47.3766 62.9477 46.8735C63.3698 46.8078 63.8007 46.8266 64.2154 46.9289C64.3152 46.9532 64.7047 47.1505 64.8044 47.1067C64.9269 47.0397 63.9151 46.5526 63.8259 46.5172C63.2451 46.3665 62.6346 46.3742 62.0578 46.5393C58.9688 47.3394 57.0272 50.7936 47.8244 52.2775C43.2942 53.0078 38.7506 52.2847 35.3923 51.9772C33.7921 51.8309 33.6126 51.9556 35.2139 52.3113Z" fill="#191919"/>
<path d="M36.3371 61.7746C40.0123 60.8675 43.482 58.6855 43.9879 54.9465C44.0196 54.8154 44.0234 54.6791 43.999 54.5465C43.9763 54.5243 43.9258 54.6019 43.8433 54.7908C43.3817 56.2672 42.5054 57.5796 41.3189 58.5719C37.5904 61.646 31.4278 61.7641 26.6405 61.3075C26.5851 61.3019 20.5827 60.7434 20.5245 60.7179C20.3372 60.6365 20.3887 60.5733 20.3909 60.3622C20.4137 58.6046 20.4192 54.1354 20.4247 53.6577C20.4247 53.5248 20.5023 53.1352 20.4026 53.0128C20.3577 52.9463 20.1848 53.3807 20.0574 54.2805C19.8136 56.0104 19.6945 58.7332 19.6352 59.7516C19.6119 60.1517 19.3903 61.0083 19.7238 61.3197C20.0009 61.5801 26.1513 62.2251 26.5291 62.2649C29.8018 62.6798 33.1221 62.5138 36.3371 61.7746Z" fill="#191919"/>
<path d="M43.4537 11.2456C45.7526 8.22415 47.3323 6.93922 50.4485 4.13996C50.7166 4.31957 50.9727 4.51631 51.2154 4.72896C52.5488 5.90946 53.8219 7.15645 55.0297 8.46518C57.6849 11.291 60.0631 15.081 60.6005 18.974C60.8655 21.1308 60.3531 23.3113 59.1555 25.1244C58.8413 25.6308 58.93 25.6369 59.2109 25.346C59.4765 25.0913 59.7218 24.8162 59.9445 24.5232C60.7811 23.3333 61.2771 21.9377 61.379 20.4867C61.4443 18.3956 61.0017 16.3198 60.0891 14.4371C58.2507 10.2715 55.1079 6.65719 51.5046 3.78479C51.0281 3.40469 50.4075 2.93205 49.859 3.46231C47.4725 5.76898 44.9481 8.02357 43.2426 10.9015C42.9499 11.3232 42.7255 11.7885 42.5777 12.2801C42.5977 12.3687 42.8681 12.0152 43.4537 11.2456Z" fill="#191919"/>
<path d="M91.6367 42.9705C91.6047 42.5204 91.5564 42.0717 91.4921 41.6251C91.4871 41.2665 91.4035 40.9134 91.2472 40.5906C91.197 40.5157 91.1261 40.457 91.0432 40.4215C90.9603 40.386 90.8689 40.3753 90.7801 40.3906C90.4138 40.4809 90.3224 41.0555 90.1911 41.3581C89.014 43.9326 86.9608 46.0055 84.3975 47.207C82.1418 48.3113 79.8601 48.7978 77.5584 48.0415C77.3246 47.9645 76.9024 47.6536 76.6719 47.709C76.6275 47.7195 76.7306 47.8149 77.0165 48.0088C78.7602 49.1918 80.9311 49.0322 82.8544 48.4759C84.5568 47.9917 86.1498 47.1835 87.5458 46.0955C88.7355 45.1569 90.7041 42.8364 90.6598 42.4258C90.8204 44.0499 90.7604 45.6882 90.4814 47.2962C89.6352 51.2364 88.0629 54.9845 85.8448 58.3492C85.3561 59.039 83.757 61.0481 82.9425 61.2858C82.9069 61.0253 82.9258 60.7602 82.9979 60.5074C83.4312 57.3186 82.1291 53.3042 79.0727 51.8115C78.5269 51.5511 77.9519 51.3569 77.36 51.233C77.1629 51.1712 76.9571 51.1413 76.7505 51.1444C76.5843 51.228 78.4206 51.7079 79.4417 52.534C80.8269 53.8067 81.7664 55.4908 82.1219 57.338C82.2638 58.0403 82.3235 58.7567 82.2997 59.4729C82.2781 60.1295 81.9169 61.0204 82.1551 61.6416C82.2005 61.7718 82.2785 61.8883 82.3817 61.9797C82.4849 62.0712 82.6099 62.1347 82.7447 62.1641C83.2578 62.2555 83.8013 61.7646 84.1787 61.4748C88.0218 58.5171 92.1054 49.4671 91.6367 42.9705Z" fill="#191919"/>
<path d="M21.0026 47.2852C21.4595 47.4297 21.8995 47.6235 22.3146 47.8631C23.2765 48.2598 23.9398 48.4637 23.8495 48.4637C23.2594 49.347 22.8163 50.32 22.5374 51.345C21.8408 53.8247 21.6627 56.4215 22.0143 58.9731C22.1251 59.5516 22.2592 59.6181 22.3817 59.0285C22.626 57.8494 22.733 54.5371 23.3602 51.7001C23.8423 49.5209 24.0705 49.2106 24.1719 48.5535C24.7055 48.6754 25.2402 48.8826 25.7733 49.0206C27.8123 49.5481 28.8629 49.6013 28.1414 49.1092C27.0632 48.3734 23.5065 47.2807 22.2371 46.9854C22.4261 46.8873 22.6081 46.7762 22.7817 46.6529C23.676 45.9921 24.4701 45.2055 25.1394 44.3175C28.9715 39.6271 32.2084 31.5286 32.1669 31.1169C32.1176 30.8448 30.3123 35.175 27.5414 39.6459C26.3473 41.572 24.0656 45.0051 22.0481 46.162C20.7183 46.9256 20.2296 46.1155 20.08 44.605C19.4943 38.7151 25.4547 22.2071 31.6444 14.748C32.7071 13.4675 34.7251 11.275 35.8144 12.5355C36.1363 13.032 36.3064 13.6116 36.3037 14.2033C36.3865 16.0475 36.2257 17.8945 35.8255 19.6965C35.2396 22.5451 34.4595 25.3501 33.4906 28.0921C32.8395 30.0314 32.4229 31.0842 32.4561 31.2055C32.527 31.9153 39.3002 15.9969 36.4151 11.957C38.253 12.3575 40.048 12.9348 41.7748 13.6808C44.0227 14.6074 46.1329 15.8379 48.0465 17.3378C50.2886 19.171 52.4199 21.1358 54.429 23.2217C57.5908 26.2819 60.0627 29.9821 61.6793 34.0746C63.0235 37.5304 62.7514 38.3028 63.3809 40.2571C63.5766 40.9612 63.9175 41.6165 64.3816 42.1809C64.6828 42.525 65.065 42.7888 65.4936 42.9483C65.6509 43.0149 65.8231 43.0378 65.9923 43.0148C66.0256 42.9816 65.9142 42.9483 65.692 42.8369C65.3426 42.6502 65.0328 42.3973 64.78 42.0922C63.5233 40.6516 63.8269 37.7366 62.5004 34.0192C61.0531 29.9469 58.735 26.2392 55.7079 23.1546C53.6023 20.9277 51.3471 18.8473 48.958 16.9278C46.8963 15.3038 44.5925 14.0137 42.1305 13.1046C40.2032 12.3162 38.1663 11.8287 36.0909 11.6589C35.8795 11.4864 35.6298 11.3671 35.3627 11.311C35.0957 11.2549 34.8191 11.2636 34.5561 11.3365C29.2435 12.5688 20.172 31.7901 19.2217 42.0053C19.0632 43.7113 18.9563 46.623 20.5676 47.2093C20.708 47.2562 20.8546 47.2818 21.0026 47.2852Z" fill="#191919"/>
<path d="M28.1642 23.1884C29.0812 21.4934 31.7148 16.6374 32.8789 15.1264C33.4014 14.4482 33.746 14.103 33.7571 14.0476C33.7571 14.0254 33.6906 14.0698 33.5355 14.2033C33.2908 14.4176 33.0605 14.6479 32.8462 14.8926C31.5618 16.3332 29.8774 19.2776 27.9531 22.6653C25.7702 26.4705 23.9966 30.4963 22.6621 34.6752C21.9217 37.174 21.3854 39.7288 21.0585 42.3144C20.9758 42.796 21.0023 43.29 21.1361 43.76C21.2508 44.1146 21.6586 44.9164 22.1479 44.7053C22.17 44.6942 22.0925 44.6721 21.9262 44.5945C21.6777 44.4464 21.4859 44.2194 21.3816 43.9495C21.2178 43.3763 21.21 42.7698 21.3589 42.1925C22.4172 35.3346 24.8867 29.2429 28.1642 23.1884Z" fill="#191919"/>
<path d="M54.207 65.544C51.0293 62.061 45.3332 60.5622 41.1632 63.8984C36.9931 67.2345 34.3534 70.482 33.7351 72.8829C33.1161 75.2971 33.5688 78.2919 37.9938 79.911C39.032 80.2086 40.0865 80.4461 41.1521 80.6224C40.6058 81.6484 40.2302 82.7565 40.04 83.9032C39.6843 83.825 39.3275 83.7198 38.9612 83.6693C38.8166 83.6494 37.9145 83.6045 38.2719 83.9364C38.6703 84.3054 39.7397 84.9471 40.3071 84.823C41.1515 84.6434 41.2673 82.8338 41.4302 82.1766C41.5787 81.5771 41.6746 81.0757 41.7306 80.7199C41.9638 80.7532 42.186 80.7642 42.4088 80.7753C42.831 80.7969 45.6779 80.7975 45.7671 80.1658C45.7909 79.9996 44.6035 80.3526 42.5423 80.1104C41.3637 79.9719 40.2295 79.7226 39.7397 78.5202C39.2178 77.2414 39.4172 75.7736 39.5619 74.4393C39.9974 70.4233 40.7254 68.9539 41.6968 67.245C42.4457 67.3415 43.1577 67.6276 43.7652 68.0762C44.2296 67.209 44.9068 66.4742 45.7333 65.9407C45.7333 65.9407 45.6446 67.6202 44.7104 68.443C44.7104 68.443 46.6342 68.5538 47.2681 69.2741C47.2681 69.2741 48.2577 68.5405 48.2577 67.6063C48.5261 68.2294 48.6332 68.9101 48.5691 69.5855C49.1629 69.8547 49.6991 70.2361 50.1483 70.7087C50.7666 71.3907 48.0089 79.7248 45.4108 81.8176C45.3603 81.857 45.3223 81.9102 45.3013 81.9708C45.2803 82.0313 45.2773 82.0966 45.2926 82.1589C45.3079 82.2211 45.3408 82.2776 45.3874 82.3215C45.4341 82.3655 45.4924 82.395 45.5554 82.4066C45.7444 82.4426 45.956 82.4736 46.1893 82.5069C46.1383 82.6094 45.8973 83.3662 45.7782 83.7968C45.6882 84.0393 45.6175 84.2885 45.5665 84.542C45.4213 85.9012 47.9613 84.6894 48.3469 84.2195C48.5824 83.932 48.537 83.8145 48.1912 83.8871C47.6951 84.0216 47.1894 84.1181 46.6786 84.1758C46.9141 83.3834 46.9894 82.9451 47.0664 82.6304C49.357 82.8748 52.7907 82.805 55.2171 80.0617C57.7299 77.2281 57.3902 69.0331 54.207 65.544ZM54.1178 76.7975C53.7055 77.8974 53.7022 77.0746 53.8407 75.9187C54.2576 72.8164 53.4783 69.6717 51.6609 67.1231C50.1405 65.0459 48.281 64.1106 48.3696 63.9316C48.414 63.8762 48.547 63.9105 48.6029 63.9205C48.9871 64.0002 49.3554 64.143 49.6928 64.3433C53.9344 66.722 55.846 72.1853 54.1178 76.7975Z" fill="#191919"/>
<path d="M52.5829 83.1912C52.5727 83.1744 52.5576 83.1612 52.5397 83.1533C52.5218 83.1453 52.5018 83.1431 52.4826 83.1469L49.48 83.7475C49.4668 83.7503 49.4543 83.7557 49.4433 83.7634C49.4322 83.7711 49.4228 83.7808 49.4155 83.7922C49.4082 83.8035 49.4033 83.8162 49.401 83.8294C49.3986 83.8427 49.3989 83.8563 49.4018 83.8694C49.6789 84.7482 51.314 90.4503 43.7418 91.5092C36.3581 92.5414 36.9415 85.0557 37.1482 83.6472C37.1557 83.5803 37.1427 83.5127 37.1109 83.4533C37.0792 83.394 37.0301 83.3456 36.9703 83.3148L35.5247 82.503C35.3801 82.4138 35.1889 82.334 35.0814 82.4698C33.9101 83.9281 28.8202 93.2224 34.8371 108.501H50.8153C50.8153 108.489 58.9992 93.3537 52.5829 83.1912ZM35.292 105.587C33.0391 101.12 32.7221 95.4432 33.5571 90.6193C33.6704 89.7884 33.9064 88.9789 34.2575 88.2173C34.3586 88.7419 34.3661 89.2803 34.2797 89.8076C33.8119 94.5489 34.1504 99.3351 35.2809 103.963C35.5086 104.726 35.6389 105.514 35.6688 106.309C35.5474 106.076 35.415 105.831 35.292 105.587Z" fill="#38A1FF"/>
</svg>
