<svg width="81" height="81" viewBox="0 0 81 81" fill="none" xmlns="http://www.w3.org/2000/svg">
<path d="M55.1459 12.6037C51.1203 9.59838 45.6953 7.31736 40.7774 8.00987C40.7653 8.01133 40.7538 8.01585 40.744 8.02302C40.7341 8.03018 40.7263 8.03975 40.7212 8.0508C40.7161 8.06185 40.714 8.07402 40.7149 8.08614C40.7159 8.09827 40.7199 8.10994 40.7267 8.12006C37.8766 9.24609 38.2872 9.09971 38.2016 9.0804C35.4504 8.50027 32.5939 8.67014 29.9309 9.57224C29.7298 9.6398 29.5247 9.70455 29.3309 9.7902C29.2507 9.82033 29.18 9.87127 29.126 9.93777C29.072 10.0043 29.0366 10.084 29.0236 10.1686C28.989 10.3846 29.0027 9.97117 29.3051 15.0946C29.3051 15.1147 29.3129 15.134 29.3269 15.1484C29.3409 15.1628 29.3599 15.1712 29.3799 15.1718C31.3522 15.2632 33.2823 15.7742 35.0414 16.6706C36.8572 17.5956 38.2052 19.0349 39.9968 18.9871C41.0114 18.9601 41.9834 18.5616 43.0045 18.7663C43.4903 18.8636 43.9564 19.0393 44.4382 19.1519C46.9343 19.7355 48.2027 17.6093 51.0094 17.2674C52.3513 17.1038 52.7318 17.4532 53.0093 17.07C53.0897 16.9598 54.7007 13.6517 55.1745 12.7106C55.1843 12.6925 55.1868 12.6714 55.1815 12.6515C55.1762 12.6316 55.1635 12.6145 55.1459 12.6037ZM46.5077 13.2568C46.4962 13.3565 46.4629 13.4524 46.4102 13.5378C46.3575 13.6232 46.2866 13.6959 46.2027 13.7509C46.1187 13.8058 46.0236 13.8416 45.9243 13.8556C45.8249 13.8697 45.7237 13.8617 45.6277 13.8322C45.1327 14.9458 44.5017 16.1205 43.4159 16.6875C43.1382 16.8677 42.811 16.9564 42.4803 16.9414C42.1497 16.9264 41.8319 16.8084 41.5716 16.6039C41.3169 16.3816 41.0752 16.1447 40.8477 15.8945C40.3716 15.3637 40.1778 14.8557 39.3151 13.0653C38.8301 13.1132 38.3596 12.6696 38.4167 11.9763C38.4163 11.7892 38.4884 11.6092 38.6178 11.474C38.6912 11.4114 38.7829 11.3741 38.8792 11.3679C39.141 10.9754 41.2519 10.5265 42.5275 8.15062C42.5366 8.13574 42.5489 8.12308 42.5635 8.11359C42.5781 8.10411 42.5946 8.09804 42.6119 8.09583C42.6292 8.09363 42.6467 8.09535 42.6632 8.10087C42.6798 8.10639 42.6948 8.11556 42.7073 8.1277C44.9638 10.194 44.6123 10.4702 45.5743 11.4049C45.8183 11.6025 46.0132 11.8539 46.1437 12.1396C46.2217 12.2695 46.4212 12.1995 46.4968 12.481C46.5499 12.7365 46.5536 12.9999 46.5077 13.2568Z" fill="#38A1FF"/>
<path d="M43.091 5.00577C42.7942 5.11516 42.6941 5.23902 42.6084 5.25631C42.592 5.24908 42.5758 5.24144 42.5597 5.23339C42.2903 5.08464 41.9904 4.99952 41.683 4.98453C41.3756 4.96954 41.0689 5.02509 40.7862 5.14693C39.2275 5.77549 37.7383 7.92701 38.0198 9.8296C38.0469 10.0459 38.0961 10.2588 38.1666 10.465C38.2382 10.6331 38.2591 11.0715 38.4437 11.2786C38.2943 11.4154 38.1875 11.5923 38.1358 11.7882C38.0842 11.984 38.09 12.1906 38.1525 12.3833C38.1713 12.5957 38.2583 12.7963 38.4006 12.9551C38.5429 13.1138 38.7329 13.2222 38.942 13.264C39.4366 13.3143 39.0892 12.8293 39.4619 13.827C39.9518 15.1356 41.0565 17.1158 42.4608 17.2361C43.0167 17.2252 43.5492 17.0105 43.9572 16.6328C44.7444 15.9459 45.3401 15.0668 45.6865 14.0812C45.7821 14.1102 45.8829 14.1177 45.9817 14.1031C46.0805 14.0885 46.1749 14.0522 46.2579 13.9967C46.5033 13.8063 46.6757 13.5372 46.746 13.2346C46.8163 12.9321 46.7803 12.6145 46.644 12.3354C46.5563 12.2148 46.5664 12.3185 46.6935 12.1569C46.9363 11.7954 47.1235 11.3996 47.2488 10.9826C48.3869 7.32218 44.9501 4.3193 43.091 5.00577ZM39.0409 12.9073C38.8253 12.9447 38.6532 12.7464 38.5692 12.5244C38.4228 12.1372 38.4083 11.5818 38.8084 11.4732C39.0417 11.5098 38.8615 11.326 39.0445 12.3213C39.0807 12.5179 39.1235 12.7129 39.1728 12.9065C39.1292 12.8979 39.0844 12.8982 39.0409 12.9073ZM45.3615 13.901C44.9244 14.9683 44.4237 15.9323 43.4742 16.5488C43.2297 16.7257 42.9468 16.8424 42.6486 16.8894C41.4421 16.9751 40.3563 15.1123 39.8846 14.0128C39.5469 13.196 39.3235 12.3366 39.2207 11.4587C40.5506 11.244 41.4864 10.1316 42.3201 9.17369C42.4258 9.05304 42.7262 8.70518 42.7697 8.65089C43.6246 10.5277 44.8021 11.6699 45.8992 12.2325C45.7671 12.8028 45.5873 13.3609 45.3615 13.901ZM45.8111 13.7687C45.9851 13.322 46.1282 12.864 46.2394 12.3978C46.757 12.4428 46.3882 13.9203 45.8111 13.7687Z" fill="#191919"/>
<path d="M40.4516 12.0439C40.5208 11.7081 41.0062 11.6976 41.1827 12.2751C41.2041 12.3489 41.2295 12.4216 41.2587 12.4927C41.2743 12.5188 41.298 12.5392 41.3263 12.5507C41.3545 12.5622 41.3857 12.5641 41.4152 12.5562C41.6279 12.4987 41.4554 12.0736 41.3488 11.9015C40.939 11.2436 40.1633 11.5601 40.2405 12.0443C40.2574 12.1508 40.4303 12.146 40.4516 12.0439Z" fill="#191919"/>
<path d="M43.6776 12.3893C43.7073 12.3302 43.7415 12.2739 43.7753 12.2168C43.8091 12.1597 43.832 12.0962 43.8678 12.0378C43.9961 11.8323 44.2346 11.6956 44.428 11.8428C44.4848 11.8882 44.5481 11.9246 44.6158 11.951C44.722 11.9888 44.8406 11.6892 44.5076 11.5319C44.3512 11.4703 44.1775 11.4691 44.0202 11.5285C43.863 11.588 43.7335 11.7039 43.6571 11.8537C43.5578 11.9981 43.5082 12.1708 43.5155 12.3459C43.5161 12.3647 43.5228 12.3828 43.5345 12.3975C43.5462 12.4123 43.5623 12.4228 43.5804 12.4277C43.5986 12.4326 43.6179 12.4315 43.6354 12.4246C43.6528 12.4177 43.6677 12.4053 43.6776 12.3893Z" fill="#191919"/>
<path d="M42.6931 13.7518C42.539 13.6042 42.4212 13.6871 42.2366 13.5145C42.2085 13.4889 42.184 13.4595 42.1638 13.4273C42.1835 13.3963 42.2061 13.367 42.2262 13.3364C42.5334 12.8849 42.6551 12.3325 42.566 11.7937C42.5411 11.6771 42.3726 11.7113 42.3649 11.8207C42.3615 12.3497 42.1917 12.8642 41.8795 13.2913C41.6933 13.6533 42.4449 14.1596 42.6919 13.8737C42.7078 13.8575 42.7169 13.8357 42.7171 13.813C42.7173 13.7902 42.7087 13.7683 42.6931 13.7518Z" fill="#191919"/>
<path d="M42.4681 15.4682C42.7041 16.0272 43.7256 15.9673 43.6713 14.8803C43.6661 14.7829 43.6713 14.6792 43.5852 14.6173C43.5652 14.6055 43.5418 14.6007 43.5188 14.6036C43.4957 14.6065 43.4743 14.617 43.4578 14.6333C43.3741 14.7242 43.4373 14.8127 43.4175 15.0986C43.3773 15.6713 42.8397 15.7159 42.6209 15.3801C42.6083 15.3618 42.5892 15.3489 42.5675 15.344C42.5458 15.3391 42.5231 15.3425 42.5038 15.3536C42.4846 15.3648 42.4702 15.3827 42.4636 15.4039C42.4569 15.4252 42.4585 15.4481 42.4681 15.4682Z" fill="#191919"/>
<path d="M28.1834 10.1851C24.5391 10.0395 20.3575 10.3938 17.4406 12.6089C15.6121 13.9975 14.038 16.2685 13.07 18.3597C13.0035 18.5035 12.9508 18.6534 12.9128 18.8073C12.9066 18.8432 12.9128 18.8802 12.9304 18.9121C12.9479 18.944 12.9758 18.9691 13.0095 18.9831C13.0431 18.9971 13.0805 18.9993 13.1156 18.9893C13.1506 18.9792 13.1812 18.9576 13.2024 18.9279C13.4577 18.5435 14.7969 15.3142 17.3538 13.1836C20.4564 10.5981 24.4361 10.6637 28.1834 10.3391C28.2021 10.3368 28.2194 10.3277 28.2319 10.3135C28.2444 10.2993 28.2513 10.281 28.2513 10.2621C28.2513 10.2432 28.2444 10.225 28.2319 10.2108C28.2194 10.1966 28.2021 10.1875 28.1834 10.1851Z" fill="#191919"/>
<path d="M13.7546 20.025C13.7948 19.9912 18.4272 15.9846 20.0214 15.2651C20.9657 14.9182 21.959 14.7225 22.9643 14.6852C27.5014 14.2252 27.53 14.4548 28.3415 14.275C28.3598 14.2696 28.3757 14.2585 28.3871 14.2433C28.3985 14.2281 28.4046 14.2096 28.4046 14.1906C28.4046 14.1716 28.3985 14.1531 28.3871 14.1379C28.3757 14.1226 28.3598 14.1115 28.3415 14.1061C27.4652 13.8926 24.2335 14.2195 23.3247 14.3096C21.1116 14.5284 20.2751 14.5686 18.8668 15.574C17.0139 16.8819 15.2568 18.3206 13.609 19.879C13.5141 19.9756 13.6541 20.1067 13.7546 20.025Z" fill="#191919"/>
<path d="M17.3836 26.0891C17.0876 25.1995 16.2222 24.7029 15.4131 24.2183C14.9124 23.9187 14.9598 23.9726 15.0109 23.9537C15.0988 23.9226 15.1771 23.8691 15.2381 23.7986C15.2991 23.7281 15.3407 23.643 15.3588 23.5515C15.3942 23.2082 15.3185 22.8625 15.1428 22.5654C14.0936 20.317 10.541 18.8254 7.80994 20.132C2.63141 22.6117 3.9919 31.5254 9.80784 31.3304C10.6697 31.3014 11.5982 31.1651 12.273 30.6222C12.3866 30.5139 12.4868 30.3924 12.5714 30.2602C14.5243 30.6326 15.931 30.6186 16.8516 28.8837C17.3128 28.0162 17.6933 27.0265 17.3836 26.0891ZM17.113 26.8649C17.0156 27.7369 16.6926 28.5685 16.1759 29.2778C15.5916 30.0053 14.7664 30.1718 13.8382 30.1058C12.5111 30.0113 10.2659 29.3554 10.2028 29.3654C9.69678 29.1193 9.26659 28.7412 8.9575 28.271C8.64842 27.8009 8.4719 27.256 8.44655 26.6939C8.36934 25.1883 8.91868 23.8817 10.3922 23.4232C11.8371 22.974 13.2499 23.5161 14.5786 24.24C15.1779 24.5576 15.7556 24.9146 16.3078 25.3085C16.5661 25.4752 16.7763 25.7065 16.9175 25.9796C17.0587 26.2526 17.1261 26.5578 17.113 26.8649Z" fill="#191919"/>
<path d="M10.0279 26.866C10.0995 26.7454 9.96158 26.6328 9.84817 26.6863C9.72288 26.7384 9.61691 26.8282 9.54495 26.9433C9.45812 27.0973 9.41517 27.2722 9.42077 27.449C9.42637 27.6257 9.48031 27.7976 9.57672 27.9458C9.60142 27.9896 9.63452 28.0281 9.67413 28.0591C9.71375 28.0901 9.75909 28.113 9.80755 28.1264C9.84283 28.1357 9.87993 28.1356 9.91515 28.126C9.95036 28.1165 9.98247 28.0979 10.0083 28.0721C10.0341 28.0463 10.0526 28.0142 10.0622 27.979C10.0717 27.9438 10.0718 27.9067 10.0625 27.8714C9.95321 27.7281 9.89117 27.5544 9.88497 27.3742C9.87877 27.1941 9.92873 27.0165 10.0279 26.866Z" fill="#191919"/>
<path d="M10.9613 24.6972C10.971 24.7317 10.9929 24.7614 11.0229 24.781C11.0528 24.8006 11.0889 24.8086 11.1243 24.8037C11.1598 24.7988 11.1923 24.7813 11.2158 24.7543C11.2393 24.7274 11.2523 24.6928 11.2524 24.657C11.2577 24.5563 11.2839 24.4579 11.3294 24.3679C11.3748 24.2779 11.4384 24.1983 11.5162 24.1342C11.7302 23.9943 11.8263 24.0437 11.9345 23.9492C12.0254 23.8688 12.0298 23.794 11.9936 23.7381C11.7302 23.3323 10.6954 23.9532 10.9613 24.6972Z" fill="#191919"/>
<path d="M11.6482 27.8911C11.5629 27.8368 11.5074 27.8855 11.3578 27.7862C11.3003 27.7283 11.2774 27.676 11.3771 27.5831C11.431 27.5465 11.4362 27.5497 11.5601 27.5252C11.5842 27.5264 11.608 27.5196 11.6278 27.5058C11.6476 27.4921 11.6622 27.4721 11.6695 27.4492C11.6768 27.4262 11.6762 27.4014 11.6679 27.3788C11.6596 27.3562 11.644 27.3369 11.6236 27.3241C11.5771 27.2994 11.5255 27.2857 11.4728 27.2839C11.3965 27.2883 11.3223 27.3104 11.256 27.3484C11.1897 27.3865 11.1331 27.4394 11.0908 27.5031C11.0624 27.55 11.0435 27.6021 11.0352 27.6564C11.027 27.7106 11.0295 27.766 11.0427 27.8193C11.0559 27.8725 11.0795 27.9227 11.1121 27.9668C11.1447 28.011 11.1857 28.0483 11.2327 28.0765C11.3445 28.1501 11.4767 28.1863 11.6104 28.1799C11.6395 28.1706 11.6653 28.1532 11.6849 28.1298C11.7045 28.1063 11.717 28.0778 11.721 28.0475C11.7249 28.0172 11.7202 27.9864 11.7073 27.9587C11.6944 27.931 11.6739 27.9076 11.6482 27.8911Z" fill="#191919"/>
<path d="M12.5671 25.6101C12.5886 25.6098 12.6096 25.6033 12.6275 25.5912C12.6453 25.5791 12.6592 25.5621 12.6675 25.5422C12.6757 25.5223 12.678 25.5004 12.6739 25.4792C12.6699 25.4581 12.6597 25.4386 12.6447 25.4231C12.4838 25.2896 12.4151 25.1163 12.5241 25.0137C12.6901 24.9124 12.9182 25.0451 12.9632 24.8452C12.9697 24.8242 12.9718 24.8021 12.9695 24.7803C12.9671 24.7584 12.9603 24.7373 12.9494 24.7182C12.9386 24.6991 12.9239 24.6824 12.9064 24.6692C12.8888 24.656 12.8687 24.6465 12.8474 24.6413C12.696 24.615 12.5402 24.6362 12.4014 24.7021C12.318 24.7554 12.2524 24.8323 12.2128 24.9231C12.1733 25.0138 12.1617 25.1143 12.1795 25.2117C12.1972 25.3091 12.2436 25.399 12.3126 25.4699C12.3816 25.5409 12.4702 25.5897 12.5671 25.6101Z" fill="#191919"/>
<path d="M13.9806 27.2123C14.0757 27.0656 14.1188 26.8913 14.1029 26.7172C14.0871 26.5432 14.0133 26.3795 13.8933 26.2524C13.8739 26.2342 13.8497 26.222 13.8236 26.2172C13.7975 26.2124 13.7705 26.2153 13.746 26.2254C13.7214 26.2356 13.7003 26.2526 13.6851 26.2744C13.67 26.2962 13.6614 26.3219 13.6605 26.3485C13.6625 26.5817 13.8772 26.7888 13.7144 27.004C13.6766 27.0378 13.6762 27.049 13.6239 27.0615C13.5169 27.0559 13.4908 27.0072 13.2443 26.8383C12.5588 26.3542 11.7562 26.0626 10.9198 25.9938C10.8927 25.9948 10.8668 26.0053 10.8467 26.0236C10.8266 26.0418 10.8135 26.0665 10.8099 26.0934C10.8062 26.1203 10.812 26.1476 10.8265 26.1706C10.8409 26.1935 10.863 26.2107 10.8888 26.219C11.4348 26.352 11.9661 26.5391 12.4749 26.7776C13.1948 27.1467 13.3195 27.4045 13.6138 27.4017C13.6853 27.3997 13.7553 27.3816 13.8188 27.3488C13.8823 27.316 13.9376 27.2693 13.9806 27.2123Z" fill="#191919"/>
<path d="M14.9708 25.9749C14.8863 25.9604 14.6149 26.0304 14.6016 26.1494C14.5188 26.882 14.2989 27.5925 13.9534 28.2438C13.9303 28.2843 13.924 28.3322 13.9358 28.3773C13.9476 28.4224 13.9766 28.4611 14.0165 28.4851C14.3158 28.6695 14.6683 28.7481 15.0177 28.7086C15.367 28.6691 15.693 28.5137 15.9436 28.2672C16.7403 27.3945 16.1483 26.1792 14.9708 25.9749ZM15.9412 27.4777C15.9095 27.6473 15.8386 27.807 15.7341 27.9442C15.6295 28.0814 15.4943 28.1921 15.3393 28.2677C15.1843 28.3432 15.0137 28.3814 14.8412 28.3791C14.6688 28.3769 14.4993 28.3342 14.3463 28.2547C14.5961 27.7807 14.7582 27.2654 14.8248 26.7337C14.8393 26.5865 14.8373 26.4382 14.8188 26.2914C14.8703 26.3207 16.008 26.4828 15.9412 27.4777Z" fill="#191919"/>
<path d="M27.6848 7.91215C28.2881 7.83896 29.848 7.34069 31.4771 7.76818C31.6311 7.83 31.797 7.85653 31.9625 7.84579C31.9816 7.84511 32 7.83897 32.0156 7.82811C32.0312 7.81726 32.0434 7.80214 32.0507 7.78456C32.058 7.76698 32.0601 7.74767 32.0567 7.72894C32.0533 7.71021 32.0447 7.69284 32.0317 7.6789C31.9888 7.61841 31.926 7.57487 31.8544 7.55584C30.8289 7.10342 28.5897 7.26187 27.6293 7.70705C27.6091 7.71967 27.5935 7.73845 27.5848 7.76063C27.5761 7.78281 27.5747 7.8072 27.581 7.83019C27.5872 7.85319 27.6007 7.87358 27.6194 7.88834C27.6381 7.9031 27.661 7.91144 27.6848 7.91215Z" fill="#191919"/>
<path d="M20.83 33.9524C20.0905 32.9796 18.4541 32.3289 17.2545 32.0792C17.2055 32.0671 17.1537 32.0747 17.1102 32.1002C17.0666 32.1257 17.0348 32.1672 17.0214 32.2159C17.0079 32.2646 17.014 32.3165 17.0384 32.3608C17.0627 32.405 17.1033 32.438 17.1516 32.4528C18.1758 32.6552 19.1469 33.0678 20.0036 33.6645C21.457 34.7503 20.9965 36.3991 19.4752 36.3629C18.3492 36.3352 17.4451 35.2771 16.1586 34.2054C16.1336 34.1804 16.0997 34.1664 16.0644 34.1664C16.0291 34.1665 15.9952 34.1805 15.9702 34.2056C15.9453 34.2306 15.9313 34.2645 15.9313 34.2998C15.9313 34.3351 15.9454 34.369 15.9704 34.394C16.2603 34.7425 16.5794 35.0657 16.9243 35.3599C17.5024 35.9628 18.2184 36.4161 19.0107 36.6806C19.347 36.7734 19.7021 36.7729 20.0381 36.6793C20.3741 36.5856 20.6783 36.4023 20.9181 36.149C21.1503 35.8254 21.2677 35.4335 21.2518 35.0355C21.2358 34.6376 21.0874 34.2564 20.83 33.9524ZM19.2761 36.3492C19.2902 36.3492 19.2902 36.3492 19.2761 36.3492V36.3492Z" fill="#191919"/>
<path d="M22.6953 26.8745C21.8714 26.5007 20.9663 26.3416 20.0644 26.412C20.0378 26.4108 20.0112 26.415 19.9863 26.4244C19.9614 26.4337 19.9386 26.448 19.9193 26.4664C19.9001 26.4848 19.8848 26.5069 19.8743 26.5314C19.8638 26.5559 19.8585 26.5822 19.8585 26.6089C19.8585 26.6355 19.8638 26.6618 19.8743 26.6863C19.8848 26.7108 19.9001 26.7329 19.9193 26.7513C19.9386 26.7697 19.9614 26.784 19.9863 26.7934C20.0112 26.8027 20.0378 26.8069 20.0644 26.8057C21.0698 26.7808 22.0981 26.8222 22.8915 27.4415C23.8825 28.2157 23.7952 29.3176 23.2217 29.6719C22.0957 30.3676 19.7745 28.3017 19.3928 28.06C19.3642 28.0434 19.3305 28.0377 19.2981 28.044C19.2656 28.0504 19.2365 28.0683 19.2163 28.0945C19.196 28.1207 19.186 28.1533 19.1881 28.1863C19.1902 28.2194 19.2042 28.2505 19.2275 28.274C19.3508 28.4221 19.4915 28.5548 19.6466 28.6693C20.5345 29.4052 22.1359 30.5116 23.2084 30.0853C24.353 29.6288 24.3614 27.7592 22.6953 26.8745Z" fill="#191919"/>
<path d="M20.9105 27.5984C20.8703 27.9201 20.8208 28.2398 20.7946 28.5635C20.7953 28.6005 20.8067 28.6365 20.8276 28.6671C20.8484 28.6976 20.8777 28.7214 20.9119 28.7356C20.946 28.7497 20.9836 28.7536 21.0199 28.7466C21.0563 28.7397 21.0898 28.7223 21.1164 28.6966C21.2772 28.5209 21.4337 28.346 21.5917 28.1698C21.6026 28.5076 21.535 28.8503 21.6786 29.0176C21.7005 29.043 21.7274 29.0638 21.7575 29.0785C21.7877 29.0932 21.8206 29.1016 21.8542 29.1031C21.8877 29.1047 21.9213 29.0993 21.9527 29.0875C21.9841 29.0756 22.0128 29.0574 22.0369 29.0341C22.1743 28.8581 22.2938 28.6688 22.3936 28.469C22.4644 28.3637 22.5272 28.2532 22.5814 28.1385C22.5919 28.1003 22.5895 28.0598 22.5745 28.0231C22.5596 27.9865 22.5329 27.9558 22.4988 27.9359C22.4646 27.916 22.4248 27.908 22.3855 27.913C22.3463 27.9181 22.3098 27.936 22.2818 27.9639C22.166 28.1206 22.0606 28.2846 21.9661 28.4549C21.9966 28.1879 21.9621 27.9175 21.8656 27.6667C21.8509 27.6415 21.8306 27.62 21.8063 27.6038C21.782 27.5876 21.7543 27.5772 21.7254 27.5733C21.6965 27.5694 21.667 27.5722 21.6393 27.5814C21.6116 27.5907 21.5864 27.6061 21.5656 27.6265C21.4404 27.7649 21.316 27.9037 21.1924 28.0431C21.1956 27.8947 21.1968 27.7468 21.2004 27.598C21.2004 27.5789 21.1966 27.5601 21.1893 27.5425C21.182 27.5249 21.1713 27.5089 21.1578 27.4955C21.1443 27.4821 21.1283 27.4714 21.1107 27.4641C21.0931 27.4569 21.0743 27.4532 21.0552 27.4532C21.0362 27.4532 21.0174 27.457 20.9998 27.4643C20.9822 27.4716 20.9662 27.4823 20.9528 27.4958C20.9393 27.5093 20.9287 27.5253 20.9214 27.5429C20.9142 27.5605 20.9104 27.5793 20.9105 27.5984Z" fill="#191919"/>
<path d="M18.2173 34.0095C18.2169 33.9747 18.204 33.9412 18.181 33.9151C18.158 33.889 18.1264 33.872 18.0919 33.8671C18.057 33.8615 18.0213 33.869 17.9916 33.8882C17.9619 33.9073 17.9403 33.9368 17.931 33.9709C17.8712 34.3023 17.833 34.6372 17.8168 34.9735C17.8177 35.0094 17.8291 35.0443 17.8494 35.0739C17.8698 35.1035 17.8983 35.1266 17.9315 35.1403C17.9646 35.1541 18.0011 35.1579 18.0364 35.1513C18.0718 35.1448 18.1044 35.1281 18.1305 35.1034C18.2672 34.9542 18.4035 34.8038 18.5395 34.6538L18.5942 35.4086C18.5949 35.442 18.6042 35.4747 18.6213 35.5035C18.6384 35.5323 18.6626 35.5561 18.6916 35.5728C18.7206 35.5895 18.7534 35.5984 18.7869 35.5986C18.8203 35.5989 18.8533 35.5905 18.8825 35.5743C19.1982 35.401 19.3003 35.0402 19.4749 34.805C19.5493 34.7177 19.6132 34.6739 19.5802 34.698C19.619 34.6711 19.6462 34.6306 19.6564 34.5846C19.6665 34.5386 19.6589 34.4904 19.6351 34.4497C19.6112 34.409 19.5729 34.3789 19.5278 34.3653C19.4826 34.3516 19.434 34.3556 19.3916 34.3763C19.1961 34.5262 19.0416 34.723 18.9424 34.9485L18.8869 34.1965C18.8863 34.1591 18.8748 34.1226 18.8537 34.0916C18.8326 34.0606 18.803 34.0365 18.7684 34.0221C18.7338 34.0077 18.6957 34.0038 18.6589 34.0108C18.6221 34.0178 18.5881 34.0354 18.5612 34.0614C18.445 34.1909 18.3295 34.3216 18.2145 34.4519C18.2246 34.3035 18.2202 34.1571 18.2173 34.0095Z" fill="#191919"/>
<path d="M38.6173 19.2251C38.6264 19.1912 38.6229 19.1552 38.6075 19.1237C38.5921 19.0922 38.5658 19.0674 38.5335 19.0537C38.5012 19.0401 38.465 19.0386 38.4317 19.0496C38.3984 19.0605 38.3702 19.0832 38.3522 19.1133C37.8524 20.1046 37.5278 22.9458 37.8158 23.4051C37.8253 23.4208 37.8387 23.4338 37.8548 23.4429C37.8708 23.4519 37.8889 23.4566 37.9073 23.4566C37.9257 23.4566 37.9437 23.4519 37.9598 23.4429C37.9758 23.4338 37.9892 23.4208 37.9988 23.4051C38.0177 23.3719 38.0338 23.3372 38.047 23.3013C38.0551 23.2704 38.0611 23.0126 38.0603 22.9796C38.0407 21.7062 38.2288 20.438 38.6173 19.2251Z" fill="#191919"/>
<path d="M40.6684 19.3542C40.6785 19.2223 40.4718 19.1974 40.4404 19.3232C40.0845 20.7501 40.923 22.532 40.7014 24.0598C40.6684 24.2882 40.5864 24.4849 40.6612 24.6059C40.6786 24.6339 40.7061 24.6541 40.7379 24.6625C40.7698 24.6708 40.8036 24.6667 40.8325 24.651C40.9696 24.5858 41.0119 24.3007 41.0336 24.1515C41.2684 22.5827 40.5289 21.1884 40.6684 19.3542Z" fill="#191919"/>
<path d="M39.9071 23.4751C39.915 23.7047 39.8937 23.9344 39.844 24.1587C39.821 24.2432 39.8116 24.3307 39.8162 24.4181C39.8448 24.6385 40.2695 24.7467 40.1456 23.4763C40.1414 23.4478 40.1271 23.4217 40.1053 23.4029C40.0835 23.384 40.0557 23.3736 40.0269 23.3734C39.9981 23.3733 39.9702 23.3834 39.9482 23.4021C39.9262 23.4207 39.9117 23.4466 39.9071 23.4751Z" fill="#191919"/>
<path d="M39.3268 23.5205C39.1559 24.1503 39.1543 24.1238 39.1764 24.2806C39.1835 24.3022 39.1966 24.3213 39.2141 24.3357C39.2316 24.3502 39.2528 24.3595 39.2753 24.3624C39.2978 24.3653 39.3207 24.3619 39.3414 24.3524C39.362 24.3429 39.3795 24.3278 39.3919 24.3088C39.4643 24.2058 39.4627 24.1849 39.5842 23.5909C39.592 23.5573 39.5864 23.522 39.5688 23.4923C39.5511 23.4627 39.5226 23.4411 39.4893 23.432C39.456 23.4229 39.4205 23.427 39.3902 23.4435C39.3599 23.46 39.3372 23.4876 39.3268 23.5205Z" fill="#191919"/>
<path d="M38.5863 23.2857C38.5502 23.2804 38.5133 23.2885 38.4827 23.3085C38.4521 23.3285 38.4299 23.359 38.4202 23.3943C38.3398 23.8547 38.294 23.9995 38.3776 24.1962C38.3836 24.2151 38.3949 24.2319 38.4102 24.2447C38.4254 24.2574 38.444 24.2656 38.4637 24.2682C38.4834 24.2707 38.5035 24.2676 38.5215 24.2592C38.5395 24.2508 38.5547 24.2375 38.5654 24.2207C38.6941 24.0494 38.6885 23.8551 38.7182 23.4349C38.718 23.3983 38.7046 23.3629 38.6803 23.3355C38.6561 23.3081 38.6227 23.2904 38.5863 23.2857Z" fill="#191919"/>
<path d="M45.0803 23.8519C44.6814 22.4415 45.073 20.6958 44.7586 19.4346C44.726 19.3031 44.5032 19.3265 44.5173 19.4672C44.693 21.2564 44.2728 22.9084 44.8881 24.3856C44.943 24.5885 45.0619 24.7683 45.2271 24.8983C45.2466 24.9094 45.2687 24.9151 45.2911 24.915C45.3136 24.9149 45.3356 24.909 45.3551 24.8978C45.3745 24.8866 45.3907 24.8705 45.402 24.8511C45.4134 24.8317 45.4195 24.8098 45.4197 24.7873C45.4024 24.5183 45.2528 24.4563 45.0803 23.8519Z" fill="#191919"/>
<path d="M46.1332 24.0719C46.1054 24.0051 45.9976 23.6746 45.9908 23.6536C45.9839 23.631 45.9691 23.6116 45.9492 23.5989C45.9292 23.5861 45.9054 23.5809 45.882 23.5841C45.8586 23.5873 45.837 23.5987 45.8212 23.6163C45.8054 23.6339 45.7964 23.6565 45.7957 23.6802C45.806 24.014 45.9251 24.3352 46.1348 24.5951C46.1557 24.6162 46.1837 24.6289 46.2133 24.6307C46.243 24.6325 46.2723 24.6232 46.2956 24.6047C46.4279 24.5018 46.263 24.3848 46.1332 24.0719Z" fill="#191919"/>
<path d="M46.9567 24.0059C46.8603 23.8255 46.7796 23.6371 46.7154 23.4429C46.7063 23.4149 46.6867 23.3915 46.6608 23.3775C46.6348 23.3635 46.6045 23.3601 46.576 23.3679C46.5476 23.3757 46.5233 23.3942 46.5081 23.4195C46.493 23.4447 46.4881 23.4749 46.4946 23.5036C46.5337 23.7251 46.6233 23.9345 46.7564 24.1157C46.8811 24.2456 47.0223 24.1676 46.9567 24.0059Z" fill="#191919"/>
<path d="M47.5051 23.6404C47.4266 23.5158 47.3671 23.3803 47.3285 23.2382C47.3197 23.2062 47.2986 23.179 47.2697 23.1626C47.2409 23.1462 47.2067 23.1419 47.1747 23.1507C47.1427 23.1595 47.1155 23.1807 47.0991 23.2095C47.0827 23.2384 47.0784 23.2726 47.0872 23.3046C47.2473 24.0872 47.6434 23.9014 47.5051 23.6404Z" fill="#191919"/>
<path d="M48.0644 23.0239C47.7177 21.846 47.7338 20.3355 47.0188 19.2436C47.0048 19.2232 46.9835 19.2088 46.9593 19.2034C46.9351 19.198 46.9097 19.202 46.8883 19.2145C46.8669 19.227 46.851 19.2472 46.8439 19.271C46.8368 19.2947 46.8389 19.3203 46.8499 19.3426C47.4531 20.4879 47.3502 21.8078 47.7177 23.0886C47.764 23.2495 47.8026 23.4691 47.951 23.566C47.9695 23.5766 47.9903 23.5829 48.0116 23.5844C48.033 23.5858 48.0544 23.5824 48.0742 23.5744C48.094 23.5664 48.1118 23.554 48.1261 23.5381C48.1404 23.5222 48.151 23.5033 48.1569 23.4827C48.1664 23.3243 48.1346 23.1662 48.0644 23.0239Z" fill="#191919"/>
<path d="M17.4495 67.1876C17.1712 68.8879 17.0626 70.7559 17.9872 72.2096C20.0217 75.4088 25.978 75.1683 28.4295 68.7073C29.2958 66.4239 30.1186 65.2283 30.3534 64.0134C30.5121 63.331 30.4074 62.6139 30.0602 62.0054C29.6963 61.5175 29.2295 61.1157 28.6929 60.8283C26.8237 59.6448 25.2533 58.6708 23.0704 58.3169C21.0999 57.9971 20.8988 58.8328 20.0993 59.385C19.6533 59.6934 19.1084 59.8273 18.6471 60.1088C18.3059 60.3234 18.0199 60.615 17.812 60.9603C17.6041 61.3055 17.4802 61.6948 17.4503 62.0967C17.4751 62.7714 17.5619 63.4423 17.7097 64.101C17.768 65.137 17.6804 66.176 17.4495 67.1876ZM19.3517 65.2818C19.5214 64.8642 19.763 64.4797 20.0655 64.1457C21.0842 62.9304 22.4435 61.8936 24.0183 61.705C25.5931 61.5164 26.1899 62.4968 26.4956 64.0805C26.8322 65.8275 26.9613 67.6886 25.9064 69.1308C25.3366 69.4332 24.9963 69.7449 24.3352 69.6258C23.7604 69.4623 23.2278 69.1765 22.7736 68.7881C20.8658 67.4465 19.8379 67.4912 19.3815 66.594C19.2883 66.3883 19.2376 66.1659 19.2325 65.9401C19.2274 65.7143 19.2679 65.4899 19.3517 65.2801V65.2818Z" fill="#38A1FF"/>
<path d="M25.197 67.2998C25.0659 67.5684 24.681 67.6014 24.605 67.3163C24.5648 67.1715 24.605 66.9712 24.4747 66.8928C24.4498 66.8785 24.4218 66.8703 24.393 66.8688C24.3643 66.8674 24.3356 66.8728 24.3093 66.8845C24.283 66.8963 24.2599 66.9141 24.2418 66.9365C24.2238 66.9589 24.2112 66.9853 24.2053 67.0134C24.1744 67.1581 24.1852 67.3085 24.2363 67.4474C24.2713 67.5838 24.3533 67.7035 24.4678 67.7855C24.5824 67.8675 24.7221 67.9065 24.8626 67.8957C25.003 67.8849 25.1352 67.825 25.2358 67.7264C25.3365 67.6279 25.3992 67.4971 25.413 67.3569C25.4121 67.3318 25.4032 67.3077 25.3876 67.2881C25.372 67.2685 25.3505 67.2544 25.3262 67.248C25.302 67.2416 25.2763 67.2432 25.253 67.2525C25.2298 67.2618 25.2101 67.2784 25.197 67.2998Z" fill="#191919"/>
<path d="M21.6541 65.9341C21.626 65.9221 21.5944 65.9208 21.5654 65.9303C21.5363 65.9398 21.5117 65.9596 21.4961 65.9859C21.4778 66.0129 21.4534 66.0353 21.425 66.0514C21.3966 66.0674 21.3648 66.0766 21.3322 66.0784C21.2996 66.0801 21.267 66.0742 21.2371 66.0613C21.2071 66.0483 21.1806 66.0286 21.1595 66.0036C21.0075 65.7837 21.1386 65.7032 21.1466 65.4378C21.1511 65.2769 21.0171 65.2327 20.9162 65.3111C20.8637 65.3453 20.8198 65.3912 20.788 65.4451C20.7561 65.499 20.7371 65.5595 20.7324 65.622C20.6331 66.1745 21.0694 66.5305 21.4446 66.4026C21.6747 66.3258 21.8299 66.004 21.6541 65.9341Z" fill="#191919"/>
<path d="M24.5419 65.3956L24.2476 65.1326C24.1494 65.0453 23.9834 64.8583 23.8454 64.9967C23.8169 65.0313 23.8019 65.0751 23.8033 65.1199C23.8047 65.1648 23.8224 65.2076 23.8531 65.2404C23.8788 65.2693 24.0191 65.3855 24.1643 65.5106C23.6808 65.8939 23.2878 66.3792 23.0134 66.9318C22.9997 66.9576 22.9965 66.9876 23.0045 67.0157C23.0125 67.0438 23.0311 67.0676 23.0563 67.0823C23.0815 67.097 23.1114 67.1014 23.1397 67.0946C23.1681 67.0877 23.1927 67.0702 23.2084 67.0456C23.3009 66.9125 23.4055 66.7899 23.5032 66.6604C23.7862 66.2778 24.1251 65.94 24.5086 65.6582C24.5302 65.6449 24.5486 65.627 24.5624 65.6056C24.5762 65.5843 24.585 65.5601 24.5882 65.5349C24.5914 65.5097 24.589 65.4841 24.5809 65.46C24.5729 65.4359 24.5596 65.4139 24.5419 65.3956Z" fill="#191919"/>
<path d="M23.4963 64.4304C23.6973 64.3543 23.9113 64.3187 24.1261 64.3256C24.3408 64.3325 24.5521 64.3818 24.7478 64.4706C24.7387 64.514 24.7453 64.5593 24.7665 64.5983C24.7877 64.6372 24.822 64.6674 24.8634 64.6834C24.9047 64.6994 24.9505 64.7002 24.9923 64.6856C25.0342 64.671 25.0696 64.642 25.092 64.6037C25.6394 63.4705 24.9392 62.2881 24.182 62.597C23.6238 62.8242 23.2904 63.6374 23.251 64.2458C23.2515 64.2754 23.2587 64.3045 23.2722 64.3309C23.2856 64.3573 23.3049 64.3802 23.3286 64.398C23.3522 64.4158 23.3796 64.428 23.4087 64.4336C23.4377 64.4392 23.4677 64.4381 23.4963 64.4304ZM24.4691 62.93C24.8813 63.0333 24.9609 63.7697 24.8491 64.1827C24.4978 63.9682 24.0782 63.8947 23.6748 63.9772C23.7561 63.5783 24.0593 62.93 24.4691 62.93Z" fill="#191919"/>
<path d="M30.4858 62.0541C30.8864 61.5187 31.2598 60.9634 31.6046 60.3904C31.8081 59.993 31.977 59.4907 31.5973 59.245C31.5044 59.1984 31.4026 59.1718 31.2987 59.1669C31.1948 59.1621 31.091 59.1791 30.9941 59.2169C30.292 59.4123 29.6454 59.7692 29.106 60.2593C29.0604 60.3 29.0234 60.3494 28.9973 60.4047C28.9712 60.4599 28.9565 60.5199 28.954 60.581C28.9542 60.606 28.9642 60.6299 28.9819 60.6476C28.9996 60.6653 29.0235 60.6753 29.0485 60.6755C29.1883 60.6637 29.3191 60.6012 29.4161 60.4997C29.7688 60.1919 30.1683 59.9421 30.5996 59.7598C30.8234 59.6662 31.0563 59.5959 31.2945 59.5503C31.4039 59.545 31.4276 59.5949 31.4369 59.6649C31.4843 60.0159 30.8968 60.766 30.2465 61.9137C30.2279 61.9454 30.2226 61.9833 30.2319 62.0189C30.2412 62.0545 30.2642 62.0849 30.296 62.1035C30.3277 62.1221 30.3655 62.1274 30.4011 62.1181C30.4367 62.1088 30.4672 62.0858 30.4858 62.0541Z" fill="#191919"/>
<path d="M24.1345 58.3008C24.5367 55.5376 23.4509 55.162 22.8983 55.589C22.6163 55.8601 22.4331 56.2177 22.3779 56.6049C22.016 58.0591 22.0212 57.9831 22.0562 58.1077C22.0649 58.1379 22.0812 58.1653 22.1036 58.1873C22.126 58.2093 22.1537 58.2251 22.184 58.2332C22.2144 58.2413 22.2463 58.2414 22.2767 58.2335C22.307 58.2256 22.3349 58.21 22.3574 58.1882C22.468 58.0748 22.4378 58.0921 22.7121 56.9938C22.7592 56.6094 22.9059 56.244 23.1376 55.9337C23.4935 55.62 23.7726 56.3041 23.8212 56.933C23.9198 58.1681 23.7464 58.3752 23.9721 58.4045C24.0072 58.411 24.0435 58.4038 24.0737 58.3846C24.1038 58.3653 24.1256 58.3354 24.1345 58.3008Z" fill="#191919"/>
<path d="M10.1709 56.4271C10.1825 56.4385 10.1965 56.4471 10.2119 56.4522C10.2272 56.4574 10.2436 56.459 10.2596 56.4569C10.2757 56.4548 10.2911 56.4491 10.3046 56.4401C10.3182 56.4312 10.3295 56.4194 10.3378 56.4054C10.456 56.1955 10.3668 56.0242 10.4585 55.0031C10.5378 54.4048 10.5384 53.7987 10.4605 53.2003C10.4271 53.0732 10.3845 52.9487 10.333 52.8279C10.322 52.7957 10.2991 52.7689 10.2691 52.753C10.239 52.7371 10.204 52.7332 10.1712 52.7423C10.1384 52.7513 10.1103 52.7725 10.0926 52.8016C10.0749 52.8306 10.069 52.8654 10.076 52.8986C10.0877 52.959 10.1339 53.4999 10.1379 53.561C10.2023 54.5909 9.85442 56.0624 10.1709 56.4271Z" fill="#191919"/>
<path d="M9.99048 59.5997C10.0459 59.7961 10.1538 59.9736 10.3026 60.1133C10.383 60.172 10.4799 60.0916 10.4851 60.0083C10.5073 59.6496 9.51996 58.2425 9.63779 55.242C9.63591 55.2076 9.62092 55.1752 9.5959 55.1515C9.57088 55.1278 9.53773 55.1146 9.50327 55.1146C9.46882 55.1146 9.43567 55.1278 9.41065 55.1515C9.38563 55.1752 9.37063 55.2076 9.36875 55.242C9.20293 56.7238 9.41689 58.2234 9.99048 59.5997Z" fill="#191919"/>
<path d="M7.61531 58.0772C7.63224 58.2787 7.69379 58.4739 7.79548 58.6486C7.83811 58.713 7.96076 58.715 7.97685 58.6245C8.00304 58.2731 7.9867 57.9199 7.92819 57.5725C7.82323 55.9799 8.17591 54.6605 8.38101 53.2694C8.38863 53.2376 8.38358 53.204 8.36694 53.1758C8.3503 53.1477 8.32336 53.127 8.2918 53.1183C8.26025 53.1096 8.22654 53.1135 8.19779 53.1292C8.16905 53.1448 8.1475 53.171 8.13771 53.2023C7.73958 54.6006 7.40418 56.6387 7.61531 58.0772Z" fill="#191919"/>
<path d="M9.01885 59.0624C9.14311 59.4441 9.29472 59.4517 9.32891 59.344C9.43186 59.0174 9.15397 58.8384 8.89378 56.3045C8.89378 56.2718 8.88081 56.2405 8.85773 56.2175C8.83466 56.1944 8.80336 56.1814 8.77072 56.1814C8.73808 56.1814 8.70678 56.1944 8.6837 56.2175C8.66062 56.2405 8.64766 56.2718 8.64766 56.3045C8.64092 57.2367 8.76588 58.1652 9.01885 59.0624Z" fill="#191919"/>
<path d="M8.33035 56.506C8.33035 56.4782 8.31933 56.4516 8.29972 56.432C8.28011 56.4124 8.25352 56.4014 8.22579 56.4014C8.19806 56.4014 8.17146 56.4124 8.15185 56.432C8.13224 56.4516 8.12123 56.4782 8.12123 56.506C8.0296 57.1703 8.10266 57.847 8.33397 58.4765C8.35596 58.5752 8.40744 58.6648 8.48156 58.7335C8.49464 58.7461 8.51112 58.7546 8.52897 58.758C8.54683 58.7614 8.56528 58.7595 8.58206 58.7525C8.59885 58.7455 8.61323 58.7338 8.62346 58.7188C8.63368 58.7038 8.63929 58.6861 8.6396 58.6679C8.63719 58.4266 8.62915 58.5851 8.51896 58.1274C8.38046 57.5984 8.31696 57.0526 8.33035 56.506Z" fill="#191919"/>
<path d="M17.0619 66.5795C13.8773 64.9516 11.2842 63.2211 8.94082 60.5922C7.24261 58.7106 5.9261 56.517 5.06446 54.1333C4.42101 52.3135 3.01669 47.0751 2.77419 44.1912C3.53507 44.1277 5.26071 43.9572 6.08352 43.7814C6.30148 43.7348 6.25684 43.3684 6.03003 43.3873C5.18189 43.4593 4.64381 43.5884 2.53129 43.7569C2.47129 43.7577 2.41398 43.7819 2.37155 43.8244C2.32912 43.8668 2.30491 43.9241 2.30408 43.9841C2.52536 46.1572 2.9392 48.3063 3.5407 50.4061C4.56297 54.3363 5.37211 57.0328 8.22177 60.4173C10.5901 63.2122 13.5802 65.4135 16.9525 66.8445C17.1021 66.9057 17.2075 66.6539 17.0619 66.5795Z" fill="#191919"/>
<path d="M17.7979 60.0031C17.331 59.6243 15.831 58.9237 14.5739 57.932C12.4678 56.2711 11.6884 54.496 11.6446 51.8639C11.6618 49.916 11.8936 47.976 12.3359 46.0789C12.6126 44.8584 12.7123 44.7856 12.6037 44.5841C12.5035 44.4481 12.3539 44.357 12.1871 44.3304C12.0262 44.2769 11.8706 44.2258 11.7069 44.186C11.6602 44.1736 11.6105 44.1785 11.5671 44.1998C11.5236 44.2211 11.4893 44.2573 11.4704 44.3018C11.4511 44.3461 11.4486 44.396 11.4634 44.4421C11.4782 44.4881 11.5093 44.5272 11.5509 44.5519C11.7922 44.6589 12.0113 44.7309 12.202 44.7965C11.5816 47.0308 11.2526 49.336 11.2231 51.6548C11.2376 56.0853 13.3762 58.0828 17.4231 60.1402C17.501 60.1758 17.5817 60.2048 17.6644 60.2271C17.7899 60.2645 17.9029 60.0883 17.7979 60.0031Z" fill="#191919"/>
<path d="M4.51481 43.403C4.38525 41.3861 4.79032 39.3707 5.6891 37.5605C5.7273 37.4853 5.79768 37.3108 5.77516 37.3655C5.91511 37.0413 5.62757 36.8994 5.44298 37.1841C5.05426 37.8909 4.75169 38.6417 4.54175 39.4205C4.17975 40.7146 4.06877 42.066 4.2148 43.4018C4.21464 43.4416 4.23029 43.4798 4.25831 43.508C4.28633 43.5363 4.32442 43.5522 4.3642 43.5524C4.40399 43.5526 4.4422 43.5369 4.47045 43.5089C4.49869 43.4809 4.51465 43.4428 4.51481 43.403Z" fill="#191919"/>
<path d="M5.70547 39.9268C5.7058 39.9576 5.71725 39.9873 5.73772 40.0104C5.75819 40.0334 5.7863 40.0483 5.81687 40.0523C5.84738 40.0568 5.8785 40.05 5.90435 40.0332C5.93021 40.0164 5.94901 39.9907 5.95722 39.961C6.23873 37.9868 6.89384 37.1801 6.86448 36.9131C6.8639 36.8958 6.85891 36.879 6.85 36.8642C6.84109 36.8494 6.82854 36.8371 6.81355 36.8285C6.79856 36.82 6.78163 36.8153 6.76436 36.8152C6.74709 36.815 6.73006 36.8192 6.71488 36.8274C6.4394 36.9569 5.76137 38.4449 5.70547 39.9268Z" fill="#191919"/>
<path d="M28.3748 9.65991C28.283 8.88153 28.029 8.13105 27.6292 7.45691C27.6079 7.42159 27.5758 7.3941 27.5376 7.37852C27.4994 7.36294 27.4572 7.36011 27.4173 7.37045C25.1082 7.9429 22.9485 9.00315 21.0834 10.4799C21.0106 10.5414 21.1059 10.6645 21.1851 10.6122C21.4706 10.4252 21.7537 10.2656 21.7726 10.2527C22.726 9.62022 23.7357 9.07702 24.7888 8.63C24.8395 8.69032 24.9846 8.80694 25.2943 9.10293C25.5919 9.38341 25.838 9.71389 26.0214 10.0794C26.0431 10.1143 26.0765 10.1403 26.1156 10.1528C26.1548 10.1652 26.1971 10.1633 26.235 10.1474C26.2728 10.1314 26.3037 10.1025 26.3222 10.0658C26.3406 10.029 26.3453 9.98694 26.3355 9.94705C26.0886 9.21312 25.4507 8.4619 25.1745 8.47275C25.8904 8.18731 26.6255 7.95241 27.3742 7.76979C27.6989 8.43894 27.9391 9.14585 28.0893 9.87426C28.1042 9.89858 28.1259 9.91806 28.1517 9.93035C28.1774 9.94264 28.2062 9.94721 28.2345 9.94351C28.2628 9.93981 28.2895 9.928 28.3112 9.90951C28.333 9.89101 28.3489 9.86662 28.3571 9.83927C28.3731 9.78091 28.3791 9.72027 28.3748 9.65991Z" fill="#38A1FF"/>
<path d="M23.8293 14.8686C23.3352 16.0226 22.8822 17.1937 22.4712 18.3798C21.8189 17.7516 20.2135 16.4607 19.3416 16.2789C19.2952 16.2601 19.2454 16.2509 19.1953 16.2518C19.1452 16.2527 19.0958 16.2637 19.0501 16.2842C19.0146 16.3061 18.9889 16.3408 18.9783 16.3812C18.9677 16.4215 18.9729 16.4644 18.993 16.5009C19.0509 16.6353 19.5262 16.8307 19.6819 16.9087C20.9836 17.5594 22.184 18.6577 22.3662 18.6822C21.8539 20.179 21.5273 21.2878 21.2531 22.2288C19.9485 20.8715 19.7945 20.6347 19.4916 20.3684C18.7436 19.6919 17.9283 19.0936 17.0586 18.5829C16.8572 18.4463 16.6277 18.3567 16.387 18.3207C16.3573 18.3214 16.3283 18.3297 16.3028 18.3449C16.2773 18.3601 16.2562 18.3816 16.2414 18.4074C16.2266 18.4331 16.2188 18.4623 16.2186 18.492C16.2184 18.5216 16.2258 18.5509 16.2402 18.5768C16.4011 18.8423 17.1157 18.9959 18.631 20.2257C19.5239 20.9517 20.366 21.738 21.1513 22.5791C20.8932 23.5209 20.5845 24.4482 20.2264 25.3568C19.8644 25.0551 19.3766 24.6401 19.1474 24.4587C18.4895 23.9388 15.7987 22.0084 15.3708 21.8279C15.2099 21.7603 15.16 21.7205 15.0414 21.7438C15.0154 21.7514 14.9934 21.7688 14.98 21.7924C14.9666 21.816 14.963 21.8439 14.9698 21.8701C15.0161 22.0868 15.6651 22.491 15.8903 22.6426C18.8514 24.6353 19.3955 25.1199 20.1029 25.6487C19.8237 26.2977 19.519 26.9355 19.1896 27.5606C19.1908 27.5344 19.1847 27.5083 19.172 27.4854C19.1593 27.4625 19.1405 27.4435 19.1176 27.4307C18.3037 27.01 18.294 26.9923 18.1042 27.0285C18.0844 27.0343 18.0662 27.0444 18.0509 27.0582C18.0357 27.072 18.0237 27.0891 18.016 27.1082C18.0082 27.1272 18.0049 27.1478 18.0063 27.1684C18.0076 27.1889 18.0136 27.2089 18.0238 27.2268C18.1175 27.3824 18.1368 27.38 19.0042 27.6997C19.0252 27.7065 19.0476 27.708 19.0693 27.704C19.091 27.7 19.1113 27.6907 19.1285 27.6768C18.7798 28.3403 17.721 30.2815 17.5492 30.5944C17.5401 30.574 17.527 30.5557 17.5106 30.5405C17.4942 30.5252 17.4749 30.5135 17.4539 30.5059C16.6589 30.1737 16.7703 30.212 16.5547 30.1814C16.5182 30.1699 16.4788 30.1724 16.4441 30.1885C16.4095 30.2046 16.3821 30.2331 16.3673 30.2684C16.3525 30.3036 16.3515 30.3431 16.3644 30.3791C16.3772 30.4151 16.4031 30.445 16.4369 30.4629C16.6424 30.5835 16.5575 30.5518 17.3775 30.787C17.3998 30.7925 17.4231 30.7925 17.4455 30.787C16.9629 31.6762 16.4803 32.5694 16.0098 33.4678C14.4784 32.6032 15.5159 33.0311 12.1696 31.7478C12.0201 31.684 11.8564 31.661 11.6951 31.681C11.6752 31.6871 11.6569 31.6975 11.6415 31.7115C11.6262 31.7255 11.6141 31.7428 11.6062 31.762C11.5983 31.7813 11.5948 31.802 11.5959 31.8228C11.597 31.8435 11.6027 31.8638 11.6126 31.8821C11.7007 32.0373 11.9585 32.1729 14.5363 33.095C14.7547 33.1754 15.4448 33.5502 15.8634 33.7473C15.4637 34.5122 15.0733 35.2811 14.6923 36.054C13.855 35.7834 12.0618 35.3253 11.4349 35.1468C8.94154 34.4354 8.81124 34.3196 8.00492 34.0767C8.15613 33.4332 8.31579 32.7898 8.47544 32.1463C8.48579 32.1003 8.47803 32.052 8.45375 32.0115C8.42948 31.971 8.39055 31.9414 8.34505 31.9289C8.29955 31.9163 8.25095 31.9217 8.20934 31.944C8.16773 31.9663 8.13629 32.0037 8.12154 32.0486C7.70104 33.3876 7.3745 34.7544 7.14431 36.1389C6.12677 41.8376 6.31942 47.6866 7.70974 53.306C7.72569 53.3607 7.76234 53.407 7.81191 53.4351C7.86148 53.4632 7.92005 53.4709 7.97516 53.4564L10.5526 52.7157C10.5976 52.7024 10.6372 52.6751 10.6656 52.6378C10.694 52.6005 10.7098 52.5551 10.7106 52.5082C10.5003 42.5569 16.6424 33.6009 19.8825 27.1126C21.7944 23.2837 21.5603 21.1607 24.1297 14.99C24.1984 14.8256 23.9021 14.6993 23.8293 14.8686ZM8.07329 52.9827C7.80947 51.8998 7.5903 50.8074 7.41577 49.7055C7.88186 49.7228 7.83561 49.6983 9.51742 49.4711C9.82562 49.4396 10.1287 49.3696 10.4195 49.2628C10.3085 50.2878 10.2608 51.3188 10.2767 52.3497L8.07329 52.9827ZM10.4577 48.9262C10.2228 48.9752 9.73378 49.0649 9.48002 49.087C8.77656 49.2048 8.06594 49.2748 7.35303 49.2966C7.18144 48.137 7.06013 46.9708 6.98908 45.7978C7.04942 45.821 7.11175 45.8386 7.17528 45.8505C8.25734 45.9397 9.34428 45.9538 10.4283 45.8927C10.4593 45.8831 10.4864 45.8638 10.5056 45.8377C10.5249 45.8116 10.5352 45.78 10.5352 45.7475C10.5352 45.7151 10.5249 45.6835 10.5056 45.6574C10.4864 45.6313 10.4593 45.612 10.4283 45.6024C10.189 45.5384 7.79781 45.4793 7.41215 45.4475C7.2546 45.4307 7.10179 45.3836 6.96214 45.3088C6.90101 44.0409 6.8998 42.7692 6.95852 41.4936C7.52354 42.0377 10.3965 42.5175 11.0251 42.5894C11.2058 42.6245 11.3914 42.6255 11.5724 42.5923C11.603 42.5833 11.6303 42.5656 11.651 42.5415C11.6717 42.5173 11.685 42.4876 11.6893 42.4561C11.6935 42.4245 11.6886 42.3924 11.675 42.3636C11.6614 42.3348 11.6397 42.3106 11.6126 42.2939C11.3838 42.1732 10.929 42.1772 9.78847 41.9359C9.11667 41.7985 8.45282 41.6248 7.79982 41.4156C7.50142 41.309 7.16804 41.0536 6.98466 41.0247C7.04257 40.0246 7.13855 39.0252 7.2726 38.0262C7.33296 38.0549 7.39501 38.0798 7.45839 38.101C9.01996 38.6407 10.5682 39.1868 12.3482 39.3356C12.3891 39.3349 12.4283 39.3195 12.4588 39.2923C12.4893 39.2651 12.5091 39.2278 12.5145 39.1873C12.5199 39.1468 12.5106 39.1057 12.4883 39.0714C12.4659 39.0372 12.4321 39.012 12.3928 39.0006C10.9624 38.6495 10.298 38.555 8.74609 38.0676C8.41994 37.9655 7.73347 37.6799 7.33855 37.569C7.48788 36.5472 7.6773 35.5284 7.90679 34.5126C9.60591 35.1349 11.3453 35.641 13.1131 36.0275C13.2985 36.0629 14.3147 36.3516 14.5375 36.3758C12.5806 40.4009 10.9837 44.5523 10.4577 48.9262Z" fill="#38A1FF"/>
<path d="M70.0303 30.072C70.0224 30.1184 70.0247 30.1659 70.037 30.2113C70.0493 30.2567 70.0713 30.2989 70.1015 30.335C70.1339 30.3662 70.1771 30.3836 70.2221 30.3836C70.2671 30.3836 70.3103 30.3662 70.3427 30.335C70.3731 30.299 70.3952 30.2568 70.4075 30.2114C70.4199 30.166 70.4222 30.1184 70.4143 30.072C70.4738 29.5858 70.3461 29.0951 70.0572 28.6995C70.0407 28.6747 70.0154 28.6571 69.9864 28.6504C69.9574 28.6437 69.927 28.6483 69.9013 28.6633C69.8756 28.6783 69.8566 28.7026 69.8482 28.7311C69.8398 28.7597 69.8427 28.7904 69.8561 28.8169C69.9904 29.2211 70.0494 29.6465 70.0303 30.072Z" fill="#191919"/>
<path d="M71.7347 32.4942C71.5745 32.2302 71.3293 32.0284 71.0394 31.9219C71.014 31.9053 70.9833 31.8989 70.9534 31.904C70.9235 31.909 70.8966 31.9251 70.878 31.9491C70.8595 31.9731 70.8506 32.0032 70.8532 32.0334C70.8559 32.0636 70.8698 32.0917 70.8922 32.1121C71.0414 32.2461 71.006 32.2537 71.1612 32.4121C71.3832 32.6359 71.5542 32.9049 71.6627 33.2008C71.6828 33.2789 71.7138 33.3537 71.7548 33.4232C71.7741 33.4568 71.804 33.4831 71.8399 33.498C71.8757 33.5129 71.9155 33.5155 71.953 33.5054C71.9904 33.4953 72.0235 33.473 72.047 33.4422C72.0705 33.4113 72.0832 33.3735 72.083 33.3347C72.0425 33.0289 71.9224 32.739 71.7347 32.4942Z" fill="#191919"/>
<path d="M70.9637 30.6045C69.6619 30.9785 69.0936 30.9169 68.2942 31.1441C68.2407 31.1594 68.1954 31.1951 68.1681 31.2435C68.1407 31.2919 68.1334 31.349 68.1478 31.4027C68.2612 31.7047 68.4134 31.9906 68.6006 32.2533C68.6297 32.2941 68.6729 32.3225 68.7219 32.3331C68.7709 32.3437 68.822 32.3356 68.8653 32.3104C68.9086 32.2853 68.941 32.2449 68.9561 32.1971C68.9712 32.1493 68.9679 32.0977 68.9469 32.0522C68.8285 31.8743 68.7243 31.6874 68.6352 31.4932C69.5199 31.2865 70.4573 31.2169 71.0529 30.8188C71.0785 30.8052 71.0981 30.7825 71.1079 30.7551C71.1177 30.7278 71.1169 30.6978 71.1057 30.671C71.0946 30.6443 71.0738 30.6226 71.0476 30.6103C71.0213 30.598 70.9914 30.5959 70.9637 30.6045Z" fill="#191919"/>
<path d="M68.0951 32.9366C67.9198 32.8799 67.8209 33.0407 67.5691 33.0347C67.4852 33.0304 67.4059 32.995 67.3467 32.9354C67.3099 32.8928 67.2863 32.8404 67.2788 32.7846C67.2757 32.6085 67.3372 32.4374 67.4517 32.3036C67.4795 32.2875 67.5005 32.2619 67.5107 32.2314C67.521 32.201 67.5197 32.1679 67.5073 32.1383C67.4949 32.1087 67.4721 32.0846 67.4432 32.0707C67.4143 32.0567 67.3813 32.0537 67.3504 32.0623C67.1962 32.141 67.0708 32.2664 66.9922 32.4206C66.9135 32.5748 66.8856 32.7499 66.9124 32.9209C66.9561 33.0842 67.0578 33.2259 67.1984 33.3198C67.339 33.4136 67.5089 33.4531 67.6765 33.4308C68.262 33.3669 68.291 33.0005 68.0951 32.9366ZM67.5442 33.0335H67.553C67.5496 33.0342 67.546 33.0342 67.5426 33.0335H67.5442Z" fill="#191919"/>
<path d="M75.7361 34.2705C76.6313 33.6805 77.7903 32.526 77.3045 31.5761C77.4641 31.2285 77.5487 30.8511 77.5527 30.4686C77.5566 30.0861 77.4799 29.707 77.3274 29.3562C77.0988 28.5871 76.7124 27.8741 76.1929 27.2626C75.773 26.8224 75.2535 26.4895 74.6783 26.2917C74.103 26.094 73.4886 26.0372 72.8868 26.1261C72.6545 26.1764 72.4442 26.2993 72.2863 26.4769C72.1284 26.6546 72.0311 26.878 72.0085 27.1146C71.9824 27.3414 71.9743 27.041 70.4284 27.645C70.3436 27.0257 69.4287 26.9545 68.8387 27.3498C68.3324 27.6893 68.061 28.305 68.4929 28.5728C68.5331 28.5728 67.0049 29.3952 66.4178 29.8311C65.1084 30.8055 65.184 31.9654 65.8017 33.4569C66.3707 34.8307 66.8983 35.8839 68.398 35.89C69.2603 35.8393 70.1082 35.645 70.9066 35.3153C70.9468 35.3177 70.9802 35.3684 71.0518 35.4359C71.3478 35.6973 71.7339 35.8332 72.1284 35.8148C72.5229 35.7964 72.8947 35.6252 73.1651 35.3374C73.7104 35.3398 74.9149 34.7555 75.3673 34.4961C76.8452 37.3635 78.1747 40.5075 78.2741 43.7746C78.3301 46.8086 77.9897 49.837 77.2614 52.7828C76.7875 54.4799 76.1266 56.119 75.2909 57.6702C74.3249 57.4863 73.3801 57.2048 72.471 56.8301C73.5061 54.5869 74.8437 50.7395 74.3084 48.3334C73.4752 44.6002 65.196 39.7402 64.3543 28.0677C64.2961 26.4672 64.0606 24.8781 63.6522 23.3295C61.8409 17.3282 59.2076 15.876 55.552 11.6831C56.095 10.7877 56.8123 10.0104 57.6613 9.3973C63.8846 13.3448 67.6882 19.6719 70.9625 26.2797C71.0554 26.4675 71.3293 26.303 71.244 26.116C68.1297 19.4556 63.9691 12.8164 57.7759 8.90949C57.7399 8.88799 57.6988 8.87663 57.6569 8.87663C57.6149 8.87663 57.5738 8.88799 57.5378 8.90949C57.4425 8.97544 57.3484 9.04381 57.2563 9.11338C57.2431 9.03055 57.211 8.95185 57.1626 8.88335C56.4432 7.59847 54.9508 6.44469 53.7017 5.72484C53.5778 5.65366 53.4648 5.8306 53.5609 5.90741C54.7585 6.86534 56.0185 7.5856 56.8405 9.004C56.8924 9.09408 56.9527 9.23725 57.0452 9.27666C56.3765 9.81178 55.7945 10.4469 55.3195 11.1595C55.0581 11.0691 55.067 11.094 54.7967 10.991C53.3892 10.4578 53.0088 9.53404 52.4152 9.05829C52.1309 8.83027 51.6209 8.54514 51.3145 8.74059C51.2943 8.75289 51.2776 8.7702 51.266 8.79083C51.2544 8.81147 51.2483 8.83475 51.2483 8.85842C51.2483 8.88209 51.2544 8.90536 51.266 8.926C51.2776 8.94664 51.2943 8.96394 51.3145 8.97625C51.5855 9.13148 51.7054 9.02933 52.0983 9.32049C52.7244 9.78498 53.1568 10.87 54.8836 11.4053C54.964 11.4298 55.0421 11.4543 55.1229 11.4716C55.0513 11.5923 54.9524 11.7149 55.0915 11.8758C58.5263 15.8482 61.0325 17.3302 62.7916 22.22C63.8565 25.1798 63.7048 26.2878 64.0418 30.1746C63.2468 30.4706 62.4111 30.8325 61.8875 31.5282C61.7256 31.6996 61.6376 31.9278 61.6425 32.1635C61.6473 32.3993 61.7448 32.6236 61.9137 32.7882C62.2771 33.0021 62.7039 33.0822 63.1201 33.0146C63.5494 33.0253 63.9773 32.963 64.3857 32.8304C64.583 33.8876 64.9497 34.9061 65.4715 35.8465C64.7544 36.193 64.0932 36.6448 63.5098 37.1869C62.9556 37.797 63.3405 38.4533 63.9755 38.6089C64.9356 38.7178 65.9068 38.5522 66.7765 38.1312C68.1591 40.3595 70.9046 43.9998 71.5677 44.8069C71.3667 45.0422 70.8411 47.4889 68.3236 50.2762C66.9076 51.8497 65.1937 53.1268 63.281 54.0335C62.4364 54.4305 61.5517 54.7079 60.6835 55.0466C60.5873 54.7397 59.9785 53.0105 59.8956 52.7945C59.7448 52.4008 59.5856 52.3248 59.2003 52.1511C57.4638 51.3737 57.5451 51.3837 57.4308 51.4312C57.2676 51.5 57.3577 51.5486 57.0395 52.62C56.7512 53.5904 56.6024 53.7106 56.7641 53.9676C56.8139 54.048 58.5452 56.0729 58.6224 56.1597C57.4308 57.1357 57.4361 58.1371 56.8429 59.0588C54.093 56.6902 54.9399 56.5192 53.8955 56.5253L52.1586 56.5349C52.1033 56.5361 52.0506 56.5585 52.0114 56.5977C51.9723 56.6368 51.9498 56.6895 51.9487 56.7449C51.9463 56.7851 51.8071 59.0416 51.8091 59.095C51.8248 59.457 51.9475 59.4139 54.0781 60.768C52.6275 61.88 52.6545 63.7061 51.4979 65.6497C50.8999 66.6551 50.4607 66.9768 49.8193 67.7389C49.7944 67.6645 49.5313 66.8224 49.3725 66.2827C49.3565 66.2263 49.319 66.1784 49.2679 66.1494C49.2169 66.1204 49.1565 66.1127 49.0998 66.1279C46.6816 67.0897 44.1436 67.7173 41.5558 67.9935C37.8158 68.3892 35.2018 67.9979 31.3242 65.1937C31.1871 65.0944 31.0206 65.0268 30.8883 64.923C30.8571 64.8918 30.8147 64.8742 30.7705 64.8742C30.7263 64.8742 30.6839 64.8918 30.6526 64.923C30.6214 64.9543 30.6038 64.9967 30.6038 65.0409C30.6038 65.0851 30.6214 65.1275 30.6526 65.1587C30.8722 65.378 31.1099 65.5783 31.3633 65.7575C34.9022 68.3036 37.7728 68.7608 41.0294 68.4757C43.7642 68.237 46.4522 67.6166 49.015 66.6326C49.1718 67.1651 49.334 67.6959 49.5016 68.2251C46.0278 71.3149 42.0215 71.5916 37.9091 72.8406C37.7538 72.8813 37.6012 72.9318 37.4523 72.9919C37.114 73.1439 37.1812 73.5472 37.1965 73.8589C33.9233 73.653 30.7508 72.6459 27.9582 70.926C27.7869 70.819 27.6494 71.076 27.8034 71.1906C29.8544 72.7148 32.951 73.99 37.2106 74.3342L37.2411 75.4273C37.246 75.5982 37.2186 75.786 37.3574 75.9099C37.4527 75.9931 37.5584 75.9951 37.9119 76.0305C40.3707 76.2762 42.8616 75.8833 45.3019 75.3646C50.4535 74.2695 55.2419 73.1053 60.0722 67.603C60.3883 67.2411 60.3903 67.2189 60.4522 67.1695C60.4615 67.2781 60.5608 67.3609 60.7514 67.2873C60.6364 67.3319 61.265 66.9555 63.7386 67.1554C64.2008 67.1947 64.6557 67.2957 65.0911 67.4558C65.1196 67.4726 65.1536 67.4773 65.1856 67.4689C65.2176 67.4606 65.245 67.4399 65.2618 67.4114C65.2785 67.3828 65.2833 67.3488 65.2749 67.3168C65.2666 67.2848 65.2459 67.2574 65.2173 67.2407C64.6774 66.9094 64.0568 66.7332 63.4233 66.7311C62.9339 66.6929 61.9036 66.713 61.4399 66.7311C61.1496 66.742 61.3096 66.7673 61.2231 66.6507C60.4993 65.6711 58.9405 63.2726 58.6606 62.0995C58.2818 60.5094 59.5051 59.5257 61.3671 60.2581C62.9899 60.9812 64.4763 61.9779 65.7615 63.2046C65.7976 63.2388 65.8355 63.271 65.8737 63.3028C65.4023 64.574 65.0545 65.9465 65.4397 67.2407C65.4481 67.2699 65.4666 67.2951 65.492 67.3117C65.5174 67.3283 65.548 67.3352 65.5781 67.3311C65.6084 67.3276 65.6363 67.313 65.6566 67.2901C65.6768 67.2673 65.688 67.2378 65.6879 67.2073C65.3754 64.7763 66.6671 62.7784 66.6687 62.2552C70.2881 58.7472 72.664 53.9008 73.9505 49.11C74.1476 51.2128 72.9238 54.7916 71.9578 56.8313C71.928 56.8856 71.9201 56.9493 71.9359 57.0091C71.9517 57.069 71.99 57.1206 72.0427 57.153C72.5916 57.3943 72.3906 57.2479 72.3242 57.3726C72.0164 58.0669 71.6672 58.7421 71.2786 59.3946C71.0164 59.8081 70.9738 59.7807 71.0092 60.0083C71.0188 60.0711 71.086 60.0924 71.1567 60.0827C71.3309 60.059 71.423 59.8744 71.5677 59.65C72.0162 58.9832 72.3556 58.2492 72.5731 57.4756C72.5775 57.4568 72.578 57.4374 72.5747 57.4185C72.5714 57.3996 72.5643 57.3815 72.5538 57.3654C73.3875 57.6938 74.25 57.9439 75.13 58.1126C75.013 58.2139 75.0259 58.748 74.9925 59.0641C74.8686 60.2452 74.3386 61.4525 73.9006 62.5749C73.8443 62.7188 74.0804 62.8162 74.1496 62.6798C74.7737 61.442 75.3584 60.0735 75.4067 58.6929C75.4121 58.5068 75.3805 58.3214 75.3138 58.1476L75.3588 58.1564C75.4085 58.1687 75.4607 58.165 75.5081 58.1457C75.5554 58.1264 75.5954 58.0925 75.6223 58.049C77.995 53.5361 78.6432 49.3038 78.7124 44.2994C78.7583 40.8787 77.3045 37.3108 75.7361 34.2705ZM70.1031 27.719C70.1031 27.7267 70.1071 27.7351 70.1031 27.719V27.719ZM68.669 28.1972C68.6019 28.0307 68.969 27.6949 69.1862 27.5875C69.4677 27.4496 70.0207 27.4094 70.0995 27.7114C70.1502 27.822 69.7685 27.8722 68.8528 28.3757C68.8395 28.2993 68.7036 28.2852 68.669 28.1988V28.1972ZM71.608 35.3366C71.279 35.1938 71.2058 34.9373 70.9271 34.922C70.6995 34.9095 70.6187 35.0342 69.9117 35.2437C69.1138 35.4802 68.0465 35.6805 67.3604 35.2079C67.1549 35.0583 66.9778 34.8731 66.8376 34.661C66.3935 33.9352 66.055 33.1498 65.8322 32.3285C65.4546 30.6624 66.5159 30.1605 67.9484 29.3091C69.2011 28.5 70.569 27.885 72.0057 27.485C72.1139 29.1442 73.1985 30.9805 73.9927 32.314C74.0575 32.4271 74.1313 32.5347 74.2135 32.6357C73.6894 32.8863 73.213 33.2266 72.806 33.6411C72.7828 33.6653 72.7654 33.6943 72.7549 33.7261C72.7444 33.7579 72.7412 33.7916 72.7454 33.8248C72.7497 33.858 72.7613 33.8898 72.7794 33.918C72.7975 33.9461 72.8217 33.9698 72.8502 33.9874C73.4929 34.6308 72.7256 35.7408 71.608 35.3382V35.3366ZM57.1051 53.7436C57.1051 53.752 57.1051 53.7721 57.1051 53.7436C57.0834 53.701 57.3653 53.109 57.6492 51.8961C59.3785 52.6533 59.4026 52.6091 59.52 52.8782C59.6053 53.1122 60.2741 54.9396 60.369 55.1704C59.8717 55.3679 59.3964 55.6165 58.9506 55.9124C58.7479 55.6687 57.1433 53.8043 57.1051 53.7452V53.7436ZM52.2322 59.1047C52.2226 59.0484 52.2555 58.5903 52.3529 56.9536C54.3041 56.9427 54.1473 56.9367 54.2229 56.9628C54.3672 57.0433 55.2395 58.3953 56.6474 59.3198C56.0957 59.9633 55.2073 60.0859 54.4734 60.5034C54.2993 60.3968 52.188 59.1063 52.2322 59.1063V59.1047Z" fill="#191919"/>
<path d="M49.9178 8.21457C52.5479 8.02677 53.0341 8.80131 53.6004 8.77759C53.6166 8.77744 53.6325 8.77307 53.6465 8.76489C53.6605 8.75672 53.6722 8.74503 53.6803 8.73098C53.6884 8.71693 53.6927 8.701 53.6928 8.68478C53.6929 8.66855 53.6888 8.65258 53.6808 8.63844C53.6119 8.52184 53.5084 8.42952 53.3848 8.37423C52.2955 7.85256 51.0648 7.70349 49.8824 7.94995C49.7369 7.99017 49.761 8.22784 49.9178 8.21457Z" fill="#191919"/>
<path d="M50.6446 7.24939C52.6493 7.24939 53.3885 7.86107 53.676 7.77219C53.6915 7.76762 53.7057 7.75961 53.7177 7.74877C53.7297 7.73793 53.739 7.72454 53.7451 7.70959C53.7512 7.69463 53.7538 7.6785 53.7527 7.66239C53.7517 7.64629 53.7471 7.63062 53.7392 7.61656C53.596 7.31293 51.9045 6.85448 50.645 7.01735C50.6154 7.01904 50.5876 7.03197 50.5672 7.05351C50.5468 7.07504 50.5355 7.10354 50.5354 7.13318C50.5353 7.16282 50.5466 7.19136 50.5669 7.21297C50.5872 7.23457 50.615 7.2476 50.6446 7.24939Z" fill="#191919"/>
<path d="M51.8944 6.33732C53.1607 6.57298 53.6787 7.09899 54.023 7.15449C54.0374 7.15784 54.0525 7.15696 54.0664 7.15197C54.0804 7.14698 54.0926 7.13808 54.1016 7.12634C54.1106 7.1146 54.1161 7.10051 54.1173 7.08575C54.1186 7.07099 54.1156 7.05618 54.1086 7.0431C54.0572 6.95474 53.9889 6.87739 53.9075 6.81548C53.3243 6.40047 52.6414 6.14775 51.9285 6.08315C51.7846 6.06747 51.7508 6.31077 51.8944 6.33732Z" fill="#191919"/>
<path d="M63.6751 63.2477C63.5267 63.1845 63.4636 63.1009 63.3481 63.0868C63.321 63.081 63.2927 63.0826 63.2664 63.0915C63.2401 63.1004 63.2167 63.1163 63.1987 63.1375C63.1807 63.1587 63.1688 63.1843 63.1643 63.2117C63.1597 63.2391 63.1626 63.2673 63.1728 63.2931C63.2091 63.3814 63.2769 63.4531 63.363 63.4942C63.4312 63.5518 63.5107 63.5945 63.5963 63.6195C63.682 63.6445 63.772 63.6512 63.8605 63.6391C63.9489 63.6271 64.0339 63.5967 64.1098 63.5497C64.1857 63.5028 64.2509 63.4404 64.3012 63.3667C64.3599 63.2374 64.384 63.0952 64.3714 62.9538C64.3587 62.8124 64.3096 62.6767 64.2288 62.56C64.2137 62.5348 64.1908 62.5152 64.1635 62.5042C64.1362 62.4932 64.1061 62.4915 64.0777 62.4991C64.0493 62.5068 64.0242 62.5236 64.0062 62.5468C63.9882 62.5701 63.9783 62.5986 63.9779 62.628C64.0274 63.0772 64.1098 63.374 63.6751 63.2477Z" fill="#191919"/>
<path d="M61.8714 64.9681C61.7732 65.1523 61.5746 65.0662 61.3711 65.1008C61.3447 65.1086 61.3211 65.124 61.3032 65.145C61.2853 65.166 61.2739 65.1917 61.2704 65.219C61.2669 65.2464 61.2713 65.2742 61.2833 65.299C61.2952 65.3238 61.3142 65.3447 61.3377 65.359C61.7431 65.5786 62.2944 65.2315 62.1653 64.8257C62.1513 64.7807 62.0813 64.65 62.0769 64.6247C62.0911 64.5987 62.0956 64.5685 62.0897 64.5396C62.0838 64.5106 62.0679 64.4846 62.0447 64.4662C61.9301 64.3781 61.8135 64.5145 61.8163 64.656C61.8191 64.7976 61.9019 64.8828 61.8714 64.9681Z" fill="#191919"/>
<path d="M62.8427 64.5201C62.868 64.5454 62.9023 64.5596 62.938 64.5596C62.9738 64.5596 63.0081 64.5454 63.0334 64.5201C63.0586 64.4948 63.0728 64.4605 63.0728 64.4248C63.0728 64.389 63.0586 64.3548 63.0334 64.3295C62.5461 63.8548 62.2037 63.2515 62.0461 62.5898C62.0089 62.529 61.9517 62.4831 61.8843 62.4598C61.817 62.4366 61.7437 62.4374 61.6769 62.4623C61.0881 62.6195 61.0507 62.9923 61.2261 63.0317C61.4014 63.0711 61.6282 62.8258 61.7384 62.8258C61.917 63.4936 62.3039 64.0871 62.8427 64.5201Z" fill="#191919"/>
<path d="M60.6683 60.7471C60.5574 60.685 60.433 60.651 60.306 60.648C60.1789 60.6451 60.0531 60.6733 59.9394 60.7302C59.8258 60.787 59.7278 60.8709 59.654 60.9744C59.5802 61.0778 59.5329 61.1978 59.5161 61.3238C59.4776 61.557 59.5283 61.7962 59.6583 61.9937C59.7883 62.1911 59.988 62.3323 60.2175 62.3891C60.3407 62.3862 60.458 62.3363 60.5456 62.2496C60.6331 62.1629 60.6842 62.0461 60.6884 61.923C60.7687 61.9043 60.843 61.8661 60.9048 61.8116C60.9666 61.7572 61.0139 61.6882 61.0426 61.611C61.0712 61.5338 61.0802 61.4506 61.0688 61.3691C61.0573 61.2875 61.0259 61.21 60.9772 61.1436C60.9224 60.9801 60.8134 60.8402 60.6683 60.7471Z" fill="#191919"/>
<path d="M70.0915 59.3613C69.7296 61.1472 70.145 65.7278 67.6199 68.544C67.3803 68.8119 67.1012 69.0417 66.7923 69.2253C66.6559 69.3025 66.7468 69.537 66.9016 69.4839C68.0148 69.101 68.9482 67.3927 69.3673 66.2936C69.8481 64.9164 70.1358 63.4793 70.2222 62.0231C70.2604 61.5864 70.3883 59.8374 70.3895 59.728C70.3907 59.6186 70.3819 59.5097 70.3791 59.4011C70.3786 59.3659 70.3656 59.3321 70.3424 59.3058C70.3191 59.2794 70.2872 59.2623 70.2524 59.2575C70.2176 59.2527 70.1823 59.2605 70.1527 59.2795C70.1232 59.2986 70.1015 59.3276 70.0915 59.3613Z" fill="#191919"/>
<path d="M65.862 69.8816C63.7837 71.3559 61.2304 71.7263 58.9329 70.6159C58.6612 70.4526 58.3763 70.3122 58.0812 70.1965C58.0535 70.1894 58.0244 70.1907 57.9974 70.2C57.9704 70.2093 57.9467 70.2264 57.9293 70.249C57.9118 70.2716 57.9014 70.2988 57.8992 70.3273C57.8971 70.3557 57.9033 70.3842 57.9171 70.4092C58.1172 70.6286 58.3631 70.8015 58.6373 70.9155C59.8093 71.5296 61.1385 71.7779 62.4531 71.6283C63.7677 71.4788 65.0072 70.9382 66.0112 70.0766C66.1158 69.9853 65.9791 69.7987 65.862 69.8816Z" fill="#191919"/>
<path d="M73.1036 59.2314C73.12 59.2002 73.1237 59.1639 73.114 59.13C73.1043 59.0961 73.0818 59.0673 73.0514 59.0496C73.021 59.0318 72.9848 59.0265 72.9506 59.0348C72.9163 59.043 72.8866 59.0642 72.8675 59.0938C71.3257 61.3101 70.86 61.1818 70.7333 61.6708C70.7299 61.6841 70.7295 61.698 70.7323 61.7114C70.735 61.7248 70.7407 61.7375 70.7491 61.7483C70.7574 61.7592 70.7681 61.7681 70.7803 61.7742C70.7926 61.7804 70.806 61.7837 70.8197 61.7838C71.0501 61.7369 71.257 61.6115 71.4053 61.4291C72.0911 60.7974 72.6653 60.0543 73.1036 59.2314Z" fill="#191919"/>
<path d="M73.7611 60.2383C73.7854 60.2073 73.8032 60.1717 73.8136 60.1336C73.824 60.0956 73.8266 60.0558 73.8214 60.0168C73.8208 59.9982 73.8155 59.9801 73.8059 59.9641C73.7964 59.9482 73.7829 59.9349 73.7668 59.9256C73.7507 59.9163 73.7325 59.9113 73.7139 59.911C73.6953 59.9107 73.677 59.9151 73.6606 59.9239C73.6365 59.9316 73.6133 59.9419 73.5914 59.9544C73.478 60.0312 73.2628 60.4314 72.7622 61.0173C72.463 61.3668 71.5818 62.2982 71.162 62.4808C71.0273 62.5391 71.1218 62.7623 71.2621 62.7176C72.0475 62.4651 73.4764 60.7644 73.7611 60.2383Z" fill="#191919"/>
<path d="M74.1827 60.3236C74.1795 60.3123 74.1733 60.3021 74.1649 60.2938C74.1565 60.2856 74.1461 60.2798 74.1348 60.2768C74.1234 60.2738 74.1114 60.2739 74.1001 60.2769C74.0888 60.28 74.0784 60.286 74.0701 60.2943C73.7548 60.6297 73.5875 61.7388 72.1534 62.8596C72.048 62.942 72.1848 63.1166 72.2962 63.045C73.5823 62.2194 74.2531 60.7921 74.1827 60.3236Z" fill="#191919"/>
<path d="M36.6467 75.5234C35.9775 75.6529 35.2923 75.678 34.6154 75.5978C34.1426 75.5371 33.6786 75.4205 33.2332 75.2504C31.9785 74.7758 31.4638 74.0954 31.136 73.9687C31.1142 73.9628 31.0912 73.9628 31.0694 73.9687C31.0475 73.9745 31.0276 73.986 31.0117 74.002C30.9957 74.018 30.9842 74.0379 30.9783 74.0597C30.9725 74.0815 30.9725 74.1045 30.9784 74.1263C30.9982 74.1832 31.028 74.236 31.0664 74.2824C31.9978 75.4341 34.3569 76.2903 36.0483 75.9179C36.2695 75.8693 36.4907 75.813 36.7078 75.7458C36.7362 75.7367 36.76 75.717 36.7742 75.6909C36.7884 75.6647 36.7919 75.634 36.784 75.6053C36.7761 75.5766 36.7574 75.552 36.7318 75.5368C36.7062 75.5215 36.6757 75.5167 36.6467 75.5234Z" fill="#191919"/>
<path d="M33.1118 74.5112C33.2325 74.5514 33.3193 74.3551 33.1999 74.3017C31.6778 73.618 31.3637 73.0763 31.1509 73.209C31.0705 73.2601 31.0958 73.3783 31.1509 73.439C31.7298 73.9189 32.3955 74.2829 33.1118 74.5112Z" fill="#191919"/>
<path d="M59.773 21.1788C60.8806 22.0278 61.8588 23.0334 62.677 24.164C62.7072 24.1938 62.7472 24.2116 62.7895 24.2142C62.8318 24.2167 62.8737 24.2039 62.9073 24.1779C62.9408 24.152 62.9639 24.1148 62.9721 24.0732C62.9804 24.0316 62.9732 23.9884 62.9521 23.9516C62.7679 23.6117 62.5468 23.293 62.2929 23.0013C60.6312 20.9673 58.2332 19.5332 55.9654 18.2226C55.1488 17.6975 54.2697 17.2766 53.3486 16.9698C53.3057 16.9597 53.2605 16.9666 53.2225 16.9891C53.1846 17.0116 53.1568 17.048 53.1451 17.0905C53.1334 17.1331 53.1386 17.1785 53.1597 17.2173C53.1808 17.256 53.2161 17.2851 53.2581 17.2984C54.8792 17.9382 58.3985 20.1018 59.773 21.1788Z" fill="#191919"/>
<path d="M47.4647 8.65935C47.4492 8.61755 47.4181 8.58339 47.3779 8.56404C47.3377 8.5447 47.2916 8.54167 47.2492 8.5556C47.0328 8.62477 46.9379 9.04582 46.237 9.3599C45.7716 9.55907 45.2678 9.65208 44.762 9.63219C44.2562 9.61229 43.7612 9.47999 43.3129 9.24489C43.7479 9.29832 44.1879 9.19726 44.556 8.95936C45.4958 8.36055 45.9559 7.3435 46.2249 6.27136C46.2354 6.24024 46.2395 6.20728 46.2369 6.17452C46.2342 6.14176 46.2249 6.10989 46.2095 6.08085C46.1941 6.05182 46.173 6.02623 46.1473 6.00567C46.1217 5.98511 46.0921 5.97001 46.0604 5.96128C46.0287 5.95256 45.9956 5.9504 45.963 5.95494C45.9305 5.95948 45.8992 5.97062 45.8711 5.98768C45.843 6.00474 45.8187 6.02736 45.7997 6.05415C45.7806 6.08094 45.7673 6.11134 45.7604 6.14348C45.6829 6.44011 45.5854 6.73113 45.4684 7.01454C45.2735 7.55439 44.9332 8.02991 44.4852 8.3887C43.4348 9.17652 42.772 8.4442 42.5211 8.66699C42.3912 8.68469 42.3457 8.71042 42.1515 8.73174C41.9288 8.75938 41.7028 8.73925 41.4885 8.67268C41.2743 8.60611 41.0766 8.49463 40.9088 8.34567C40.7592 8.24648 40.6304 8.11902 40.5296 7.97046C40.2561 7.56348 39.663 6.45957 39.642 5.99508C39.642 5.96942 39.637 5.944 39.6272 5.92029C39.6173 5.89658 39.603 5.87503 39.5848 5.85688C39.5667 5.83873 39.5451 5.82434 39.5214 5.81451C39.4977 5.80469 39.4723 5.79964 39.4466 5.79964C39.4209 5.79964 39.3955 5.80469 39.3718 5.81451C39.3481 5.82434 39.3266 5.83873 39.3084 5.85688C39.2903 5.87503 39.2759 5.89658 39.266 5.92029C39.2562 5.944 39.2512 5.96942 39.2512 5.99508C39.3762 6.6248 39.6109 7.22766 39.9445 7.77622C40.1168 8.16513 40.3995 8.49487 40.7576 8.7245C41.097 8.98605 41.5115 9.13155 41.94 9.13952C42.2886 9.13952 42.3602 9.06311 42.3083 9.11338C42.1608 9.26875 41.9808 9.3896 41.7811 9.46728C40.6832 9.88029 38.9234 9.28229 38.1235 7.8466C38.1103 7.82423 38.0928 7.80469 38.0721 7.78908C38.0513 7.77347 38.0277 7.7621 38.0025 7.75562C37.9774 7.74914 37.9512 7.74768 37.9255 7.75131C37.8998 7.75495 37.875 7.76362 37.8527 7.77682C37.8303 7.79003 37.8108 7.80751 37.7951 7.82826C37.7795 7.84902 37.7682 7.87265 37.7617 7.8978C37.7552 7.92295 37.7537 7.94913 37.7574 7.97485C37.761 8.00056 37.7697 8.02531 37.7829 8.04768C38.9922 10.2438 41.9564 10.529 42.6204 9.22035C42.8557 9.48589 43.1524 9.68981 43.4846 9.81434C45.2613 10.5627 47.0417 9.74517 47.3915 9.02451C47.4291 8.9724 47.4551 8.91285 47.4677 8.84986C47.4804 8.78687 47.4793 8.72191 47.4647 8.65935Z" fill="#38A1FF"/>
<path d="M42.8431 10.8064C42.8288 10.7568 42.7992 10.713 42.7586 10.6811C42.7179 10.6492 42.6683 10.631 42.6167 10.6289C42.5651 10.6269 42.5142 10.6411 42.4711 10.6697C42.4281 10.6982 42.3952 10.7396 42.377 10.7879C42.3612 10.8412 42.3628 10.898 42.3817 10.9503C42.4005 11.0025 42.4355 11.0473 42.4815 11.0783C42.5234 11.1017 42.5711 11.1124 42.6189 11.1091C42.6667 11.1059 42.7125 11.0888 42.7508 11.0601C42.7891 11.0313 42.8182 10.992 42.8346 10.9469C42.851 10.9019 42.8539 10.8531 42.8431 10.8064Z" fill="#38A1FF"/>
</svg>
